<svg xmlns="http://www.w3.org/2000/svg" viewBox="0 0 500 500"><g id="freepik--Floor--inject-11"><ellipse id="freepik--floor--inject-11" cx="250" cy="350.19" rx="243.71" ry="135.5" style="fill:#f5f5f5"></ellipse></g><g id="freepik--Window--inject-11"><g id="freepik--window--inject-11"><g id="freepik--window--inject-11"><g id="freepik--Frame--inject-11"><polygon points="159.99 30.33 162.85 31.93 162.85 157.61 159.99 156.01 159.99 30.33" style="fill:#fafafa"></polygon><polygon points="159.99 156.01 159.99 33.59 45.06 99.94 45.08 222.36 159.99 156.01" style="fill:#fff"></polygon><path d="M168.17,160.68v-138L39.74,96.87v138ZM45.06,225.62V99.94l117.79-68V157.61Z" style="fill:#f0f0f0"></path><polygon points="162.85 157.61 159.99 156.01 45.08 222.36 45.06 225.62 162.85 157.61" style="fill:#e0e0e0"></polygon><polygon points="130.77 50.45 133.63 48.8 133.63 174.48 130.77 172.88 130.77 50.45" style="fill:#fafafa"></polygon><polygon points="66.21 87.73 69.07 86.07 69.07 211.75 66.21 210.16 66.21 87.73" style="fill:#fafafa"></polygon><polygon points="39.75 234.82 36.9 233.17 36.9 95.21 39.74 96.87 39.75 234.82" style="fill:#e0e0e0"></polygon><polygon points="36.9 95.21 39.74 96.87 168.17 22.73 165.32 21.07 36.9 95.21" style="fill:#fafafa"></polygon><polygon points="45.06 157.23 45.06 160.53 162.86 92.52 160.02 90.86 45.06 157.23" style="fill:#e0e0e0"></polygon></g><polygon points="45.07 166.66 45.06 160.53 162.86 92.52 162.85 98.66 45.07 166.66" style="fill:#f0f0f0"></polygon><polygon points="69.08 217.89 74.38 214.83 74.38 76.87 69.08 79.94 69.08 217.89" style="fill:#f0f0f0"></polygon><polygon points="133.62 180.62 138.93 177.56 138.93 39.61 133.62 42.67 133.62 180.62" style="fill:#f0f0f0"></polygon><polygon points="69.07 146.67 66.21 145.02 66.21 87.73 69.07 86.07 69.07 146.67" style="fill:#fafafa"></polygon><polygon points="133.61 109.41 130.74 107.76 130.74 50.47 133.61 48.81 133.61 109.41" style="fill:#fafafa"></polygon></g></g></g><g id="freepik--Shelves--inject-11"><g id="freepik--Shelf--inject-11"><polygon points="354.65 150.76 381.39 135.32 466.69 184.54 466.69 187.48 439.95 202.92 354.65 153.69 354.65 150.76" style="fill:#ebebeb"></polygon><polygon points="439.95 199.98 354.65 150.76 381.39 135.32 466.69 184.54 439.95 199.98" style="fill:#fafafa"></polygon><polygon points="439.95 199.98 439.95 202.92 466.69 187.48 466.69 184.54 439.95 199.98" style="fill:#e6e6e6"></polygon><polygon points="377.68 111.39 361.99 120.45 361.99 150.29 377.68 141.23 377.68 111.39" style="fill:#e0e0e0"></polygon><path d="M362.49,121l15.19-8.72a6.32,6.32,0,0,0,3.47,1.9l-15.06,8.68A15.4,15.4,0,0,1,362.49,121Z" style="fill:#fff"></path><path d="M367.55,122.75a3.2,3.2,0,0,1-2.92,0l-2.55-1.46c-.81-.47-.81-1.22,0-1.68L377,111l.64.37L363,119.89c-.49.27-.49.72,0,1l2.37,1.35a2,2,0,0,0,1.76,0l14.71-8.49.72.42Z" style="fill:#fafafa"></path><path d="M382.51,114.17V144l-15,8.59a3.26,3.26,0,0,1-2.92,0l-2.55-1.47a1,1,0,0,1-.61-.84V120.45a1.05,1.05,0,0,0,.61.84l2.55,1.47a3.26,3.26,0,0,0,2.92,0Z" style="fill:#e0e0e0"></path><path d="M366.09,123.1a3,3,0,0,1-1.46-.34l-2.55-1.47a1.05,1.05,0,0,1-.61-.84v29.84a1,1,0,0,0,.61.84l2.55,1.47a3,3,0,0,0,1.46.34Z" style="fill:#f0f0f0"></path><polygon points="384.09 115.07 368.4 124.13 368.4 153.98 384.09 144.92 384.09 115.07" style="fill:#ebebeb"></polygon><path d="M368.91,124.63l15.18-8.72a6.32,6.32,0,0,0,3.47,1.9l-15.05,8.68A15.4,15.4,0,0,1,368.91,124.63Z" style="fill:#fff"></path><path d="M374,126.44a3.26,3.26,0,0,1-2.92,0L368.49,125a.88.88,0,0,1,0-1.67l15-8.59.63.36-14.72,8.5c-.48.28-.48.73,0,1l2.38,1.35a1.93,1.93,0,0,0,1.75,0l14.71-8.48.72.41Z" style="fill:#fafafa"></path><path d="M388.93,117.85v29.84l-15,8.59a3.26,3.26,0,0,1-2.92,0l-2.56-1.47a1,1,0,0,1-.6-.83V124.13a1,1,0,0,0,.6.84l2.56,1.47a3.26,3.26,0,0,0,2.92,0Z" style="fill:#e0e0e0"></path><path d="M372.51,126.79a3,3,0,0,1-1.46-.35L368.49,125a1,1,0,0,1-.6-.84V154a1,1,0,0,0,.6.83l2.56,1.47a3,3,0,0,0,1.46.35Z" style="fill:#f0f0f0"></path><polygon points="394.8 123 379.12 132.06 383.99 162.81 399.68 153.75 394.8 123" style="fill:#ebebeb"></polygon><path d="M379.74,132.49l15.19-8.71a8.34,8.34,0,0,0,4,1.57L383.91,134A19.86,19.86,0,0,1,379.74,132.49Z" style="fill:#fff"></path><path d="M385.48,133.9a4.06,4.06,0,0,1-3.16.15l-3-1.22c-.95-.39-1-1.07-.25-1.54l15-8.59.74.3-14.71,8.5c-.49.28-.42.69.14.92l2.78,1.12a2.42,2.42,0,0,0,1.89-.09L399.62,125l.84.34Z" style="fill:#fafafa"></path><path d="M400.45,125.31l4.88,30.75-15,8.59a4.08,4.08,0,0,1-3.17.14l-3-1.22c-.47-.19-.73-.45-.78-.73l-4.87-30.75c0,.28.31.54.77.74l3,1.22a4.1,4.1,0,0,0,3.16-.14Z" style="fill:#e0e0e0"></path><path d="M384,134.29a3.94,3.94,0,0,1-1.63-.24l-3-1.22c-.46-.2-.73-.46-.77-.74l4.87,30.75c.05.28.31.54.78.73l3,1.22a4.13,4.13,0,0,0,1.64.25Z" style="fill:#f0f0f0"></path><polygon points="410.41 131.11 394.72 140.18 394.72 170.02 410.41 160.96 410.41 131.11" style="fill:#e0e0e0"></polygon><path d="M395.23,140.67,410.41,132a6.44,6.44,0,0,0,3.47,1.9l-15.05,8.67A14.84,14.84,0,0,1,395.23,140.67Z" style="fill:#fff"></path><path d="M400.29,142.48a3.26,3.26,0,0,1-2.92,0L394.81,141a.88.88,0,0,1,0-1.67l15-8.59.63.36-14.72,8.5c-.48.28-.48.73,0,1l2.37,1.34a1.93,1.93,0,0,0,1.75,0l14.71-8.48.72.41Z" style="fill:#fafafa"></path><path d="M415.25,133.89v29.85l-15,8.58a3.2,3.2,0,0,1-2.92,0l-2.56-1.46a1,1,0,0,1-.6-.84V140.17a1,1,0,0,0,.6.84l2.56,1.47a3.26,3.26,0,0,0,2.92,0Z" style="fill:#e0e0e0"></path><path d="M398.83,142.83a3,3,0,0,1-1.46-.35L394.81,141a1,1,0,0,1-.6-.84V170a1,1,0,0,0,.6.84l2.56,1.46a2.9,2.9,0,0,0,1.46.35Z" style="fill:#f0f0f0"></path><polygon points="416.83 134.8 401.14 143.86 401.14 173.71 416.83 164.64 416.83 134.8" style="fill:#ebebeb"></polygon><path d="M401.64,144.35l15.19-8.71a6.32,6.32,0,0,0,3.47,1.9l-15.05,8.68A15.18,15.18,0,0,1,401.64,144.35Z" style="fill:#fff"></path><path d="M406.7,146.16a3.18,3.18,0,0,1-2.91,0l-2.56-1.46c-.81-.47-.81-1.22,0-1.68l15-8.59.64.37-14.72,8.5c-.48.27-.48.72,0,1l2.38,1.35a2,2,0,0,0,1.75,0L421,137.16l.72.42Z" style="fill:#fafafa"></path><path d="M421.67,137.57v29.85l-15,8.59a3.24,3.24,0,0,1-2.91,0l-2.56-1.47a1,1,0,0,1-.6-.84V143.86a1,1,0,0,0,.6.83l2.56,1.48a3.24,3.24,0,0,0,2.91,0Z" style="fill:#e0e0e0"></path><path d="M405.25,146.51a3,3,0,0,1-1.46-.34l-2.56-1.48a1,1,0,0,1-.6-.83V173.7a1,1,0,0,0,.6.84l2.56,1.47a3,3,0,0,0,1.46.34Z" style="fill:#f0f0f0"></path><polygon points="427.54 142.73 411.85 151.79 416.73 182.54 432.41 173.48 427.54 142.73" style="fill:#ebebeb"></polygon><path d="M412.47,152.22l15.19-8.72a8.34,8.34,0,0,0,4,1.57l-15.05,8.68A20,20,0,0,1,412.47,152.22Z" style="fill:#fff"></path><path d="M418.22,153.63a4.06,4.06,0,0,1-3.16.14l-3-1.22c-.94-.38-1.05-1.07-.24-1.53l15-8.59.74.3-14.72,8.5c-.48.28-.41.69.15.92l2.77,1.12a2.44,2.44,0,0,0,1.9-.09l14.71-8.48.84.34Z" style="fill:#fafafa"></path><path d="M433.19,145l4.87,30.75-15,8.59a4.1,4.1,0,0,1-3.16.14l-3-1.22c-.46-.19-.73-.46-.77-.74l-4.87-30.75c0,.28.3.55.77.74l3,1.22a4.06,4.06,0,0,0,3.16-.14Z" style="fill:#e0e0e0"></path><path d="M416.69,154a3.78,3.78,0,0,1-1.63-.25l-3-1.22c-.47-.19-.73-.46-.77-.74l4.87,30.75c0,.28.31.55.77.74l3,1.22a4.11,4.11,0,0,0,1.63.25Z" style="fill:#f0f0f0"></path><g id="freepik--Pot--inject-11"><path id="freepik--Shadow--inject-11" d="M438.88,181.66c-3.69,2.14-3.69,5.59,0,7.72a14.79,14.79,0,0,0,13.37,0c3.69-2.13,3.69-5.58,0-7.72A14.79,14.79,0,0,0,438.88,181.66Z" style="opacity:0.05"></path><path d="M451.58,187c3.21-3.28,5.1-11.47,2-14.07h-16c-3.13,2.6-1.25,10.78,2,14.07l.09.09a.57.57,0,0,1,.11.11l.29.25.08.06.24.19a4.78,4.78,0,0,0,.42.26,10.55,10.55,0,0,0,9.57,0h0l.41-.26.23-.18.09-.07a2.26,2.26,0,0,0,.28-.25l.13-.12Z" style="fill:#f5f5f5"></path><path d="M439,171.72c-3.64,2.1-3.64,5.51,0,7.61a14.57,14.57,0,0,0,13.18,0c3.64-2.1,3.64-5.51,0-7.61A14.57,14.57,0,0,0,439,171.72Z" style="fill:#fff"></path><path d="M441.56,173.21c-2.22,1.28-2.22,3.35,0,4.63a8.86,8.86,0,0,0,8,0c2.21-1.28,2.21-3.35,0-4.63A8.86,8.86,0,0,0,441.56,173.21Z" style="fill:#ebebeb"></path><path d="M449.58,175.41a8.86,8.86,0,0,0-8,0,3.6,3.6,0,0,0-1.33,1.21,3.54,3.54,0,0,0,1.33,1.22,8.86,8.86,0,0,0,8,0,3.58,3.58,0,0,0,1.32-1.22A3.64,3.64,0,0,0,449.58,175.41Z" style="fill:#e0e0e0"></path><path d="M442.05,176.62a17.87,17.87,0,0,1-2.91-3.85c-1.33-2.37-1.58-5.54-.89-5.94s3.51,2.78,3.51,2.78a17.67,17.67,0,0,1-.3-4.05c.12-2.11.64-4,1.24-4.41s2,2.28,2.54,4.2.92,3.52.92,3.52a30.35,30.35,0,0,1,1-4.44c.71-2,1.34-2.45,1.84-2.26s.82,1.14,1,3.8a26.61,26.61,0,0,1-.12,3.82s1-1.09,2.1-2.15,1.73-1.33,2.08-1.11.44,2-1.44,5.43a18.64,18.64,0,0,1-3.54,4.66S446.48,178.3,442.05,176.62Z" style="fill:#ebebeb"></path></g></g><g id="freepik--shelf--inject-11"><polygon points="354.65 92.84 381.39 77.4 466.69 126.62 466.69 129.56 439.95 145 354.65 95.77 354.65 92.84" style="fill:#ebebeb"></polygon><polygon points="439.95 142.06 354.65 92.84 381.39 77.4 466.69 126.62 439.95 142.06" style="fill:#fafafa"></polygon><polygon points="439.95 142.06 439.95 145 466.69 129.56 466.69 126.62 439.95 142.06" style="fill:#e6e6e6"></polygon><polygon points="379.96 50.62 362.62 60.63 362.62 93.62 379.96 83.61 379.96 50.62" style="fill:#e0e0e0"></polygon><path d="M363.18,61.18,380,51.55a7.08,7.08,0,0,0,3.84,2.1l-16.64,9.59A16.8,16.8,0,0,1,363.18,61.18Z" style="fill:#fff"></path><path d="M368.77,63.18a3.58,3.58,0,0,1-3.22,0l-2.83-1.62a1,1,0,0,1,0-1.85l16.54-9.49.7.4L363.7,60c-.54.31-.54.8,0,1.11l2.62,1.49a2.17,2.17,0,0,0,1.94,0l16.26-9.38.79.46Z" style="fill:#fafafa"></path><path d="M385.31,53.69v33l-16.54,9.5a3.58,3.58,0,0,1-3.22,0l-2.83-1.63a1.11,1.11,0,0,1-.66-.92v-33a1.13,1.13,0,0,0,.66.93l2.83,1.62a3.58,3.58,0,0,0,3.22,0Z" style="fill:#e0e0e0"></path><path d="M367.16,63.56a3.25,3.25,0,0,1-1.61-.38l-2.83-1.62a1.13,1.13,0,0,1-.66-.93v33a1.11,1.11,0,0,0,.66.92l2.83,1.63a3.36,3.36,0,0,0,1.61.38Z" style="fill:#f0f0f0"></path><polygon points="387.05 54.69 369.71 64.7 369.71 97.69 387.05 87.68 387.05 54.69" style="fill:#ebebeb"></polygon><path d="M370.27,65.25l16.78-9.63a7.08,7.08,0,0,0,3.84,2.1l-16.64,9.59A16.8,16.8,0,0,1,370.27,65.25Z" style="fill:#fff"></path><path d="M375.86,67.25a3.58,3.58,0,0,1-3.22,0l-2.83-1.62a1,1,0,0,1,0-1.85l16.54-9.49.7.4-16.26,9.39c-.54.31-.54.8,0,1.11l2.62,1.49a2.14,2.14,0,0,0,1.94,0l16.26-9.38.79.46Z" style="fill:#fafafa"></path><path d="M392.4,57.76v33l-16.54,9.49a3.58,3.58,0,0,1-3.22,0l-2.83-1.62a1.13,1.13,0,0,1-.66-.93v-33a1.13,1.13,0,0,0,.66.93l2.83,1.62a3.58,3.58,0,0,0,3.22,0Z" style="fill:#e0e0e0"></path><path d="M374.25,67.64a3.25,3.25,0,0,1-1.61-.39l-2.83-1.62a1.13,1.13,0,0,1-.66-.93v33a1.13,1.13,0,0,0,.66.93l2.83,1.62a3.36,3.36,0,0,0,1.61.38Z" style="fill:#f0f0f0"></path><polygon points="398.89 63.45 381.56 73.47 386.94 107.45 404.28 97.44 398.89 63.45" style="fill:#ebebeb"></polygon><path d="M382.24,73.94,399,64.31A9.14,9.14,0,0,0,403.5,66l-16.65,9.59A21.54,21.54,0,0,1,382.24,73.94Z" style="fill:#fff"></path><path d="M388.59,75.5a4.52,4.52,0,0,1-3.49.16l-3.3-1.35c-1-.42-1.16-1.18-.27-1.69l16.55-9.5.81.33-16.26,9.4c-.54.3-.46.76.16,1l3.06,1.24A2.76,2.76,0,0,0,388,75l16.27-9.38.92.38Z" style="fill:#fafafa"></path><path d="M405.14,66l5.39,34L394,109.49a4.5,4.5,0,0,1-3.5.15l-3.3-1.34c-.51-.22-.81-.51-.85-.82l-5.39-34c.05.3.34.6.86.81l3.3,1.35a4.43,4.43,0,0,0,3.49-.16Z" style="fill:#e0e0e0"></path><path d="M386.9,75.93a4.4,4.4,0,0,1-1.8-.27l-3.3-1.35c-.52-.21-.81-.51-.86-.81l5.39,34c0,.31.34.6.85.82l3.3,1.34a4.42,4.42,0,0,0,1.81.28Z" style="fill:#f0f0f0"></path><g id="freepik--Picture--inject-11"><g id="freepik--frame--inject-11"><polygon points="427.71 125.19 426.48 125.78 403.73 112.64 404.96 112.05 427.71 125.19" style="fill:#fafafa"></polygon><polygon points="404.96 112.05 426.6 124.55 429.75 92.17 408.1 79.69 404.96 112.05" style="fill:#fff"></polygon><path d="M401.41,113.72l26.94,15.56,3.71-38.18L405.13,75.54ZM407,79l22.75,13.13-3.27,33.61-22.75-13.13Z" style="fill:#f0f0f0"></path><polygon points="403.73 112.64 404.96 112.05 408.1 79.69 407 79.04 403.73 112.64" style="fill:#e0e0e0"></polygon><polygon points="405.13 75.54 406.37 74.97 433.31 90.52 432.06 91.09 405.13 75.54" style="fill:#fafafa"></polygon><polygon points="433.31 90.52 432.06 91.09 428.35 129.28 429.59 128.7 433.31 90.52" style="fill:#e0e0e0"></polygon></g><g id="freepik--Land--inject-11"><polygon points="405.91 111.44 425.86 122.96 426.39 117.5 422.68 101.48 419.14 106.95 419.88 111.56 413.98 94.56 406.44 105.98 405.91 111.44" style="fill:#f0f0f0"></polygon><path d="M423,94.74a2.83,2.83,0,0,1,1.32,2.46c-.09.89-.82,1.24-1.64.76a2.83,2.83,0,0,1-1.32-2.46C421.44,94.61,422.17,94.27,423,94.74Z" style="fill:#f0f0f0"></path></g></g><g id="freepik--pot--inject-11"><path id="freepik--shadow--inject-11" d="M438.91,122.94c-3.69,2.13-3.69,5.59,0,7.72a14.77,14.77,0,0,0,13.36,0c3.69-2.13,3.69-5.59,0-7.72A14.79,14.79,0,0,0,438.91,122.94Z" style="opacity:0.05"></path><path d="M451.61,128.32c3.21-3.28,5.1-11.47,2-14.08h-16c-3.13,2.61-1.25,10.79,2,14.07l.08.09.11.11a3.73,3.73,0,0,0,.3.26l.07.06.25.18a3.62,3.62,0,0,0,.41.27,10.57,10.57,0,0,0,9.58,0h0a4.94,4.94,0,0,0,.42-.27,1.84,1.84,0,0,0,.22-.17l.1-.07.28-.25.12-.13Z" style="fill:#f5f5f5"></path><path d="M439,113c-3.64,2.1-3.64,5.51,0,7.61a14.57,14.57,0,0,0,13.18,0c3.64-2.1,3.64-5.51,0-7.61A14.57,14.57,0,0,0,439,113Z" style="fill:#fff"></path><path d="M441.59,114.49c-2.22,1.28-2.22,3.35,0,4.63a8.86,8.86,0,0,0,8,0c2.21-1.28,2.21-3.35,0-4.63A8.86,8.86,0,0,0,441.59,114.49Z" style="fill:#ebebeb"></path><path d="M449.61,116.68a8.92,8.92,0,0,0-8,0,3.79,3.79,0,0,0-1.33,1.22,3.79,3.79,0,0,0,1.33,1.22,8.86,8.86,0,0,0,8,0,3.88,3.88,0,0,0,1.33-1.22A3.88,3.88,0,0,0,449.61,116.68Z" style="fill:#e0e0e0"></path><path d="M442.08,117.9a18.27,18.27,0,0,1-2.9-3.86c-1.34-2.36-1.59-5.54-.9-5.93s3.51,2.77,3.51,2.77a17.22,17.22,0,0,1-.29-4c.12-2.11.63-4,1.23-4.41s2,2.27,2.54,4.2.93,3.52.93,3.52a29.72,29.72,0,0,1,1-4.44c.71-2,1.35-2.46,1.84-2.26s.82,1.13,1,3.8a26.61,26.61,0,0,1-.12,3.82s1-1.1,2.09-2.16,1.73-1.32,2.08-1.1.44,2-1.43,5.43a19,19,0,0,1-3.55,4.66S446.52,119.58,442.08,117.9Z" style="fill:#ebebeb"></path></g></g></g><g id="freepik--Shadows--inject-11"><path id="freepik--shadow--inject-11" d="M72.56,354.74c12.23,7.56,12.23,19.81,0,27.37s-32.06,7.56-44.29,0-12.23-19.81,0-27.37S60.33,347.19,72.56,354.74Z" style="fill:#e0e0e0"></path><path id="freepik--shadow--inject-11" d="M484.36,348.05l-81.77-47.2a6,6,0,0,0-5.43,0L287.91,363.93c-1.5.86-1.5,2.27,0,3.14l81.77,47.19a6,6,0,0,0,5.43,0l109.25-63.07C485.86,350.32,485.86,348.92,484.36,348.05Z" style="fill:#e0e0e0"></path><polygon id="freepik--shadow--inject-11" points="216.6 315.02 286 274.97 348.44 311.02 279.03 351.07 216.6 315.02" style="fill:#e0e0e0"></polygon><ellipse id="freepik--shadow--inject-11" cx="257.7" cy="417.73" rx="77.57" ry="44.79" style="fill:#e0e0e0"></ellipse><ellipse id="freepik--shadow--inject-11" cx="138.93" cy="404.62" rx="77.57" ry="44.79" style="fill:#e0e0e0"></ellipse></g><g id="freepik--Lamp--inject-11"><g id="freepik--lamp--inject-11"><path d="M67.1,354.83c9.22,5.32,9.22,13.95,0,19.27s-24.16,5.32-33.38,0-9.21-14,0-19.27S57.89,349.51,67.1,354.83Z" style="fill:#37474f"></path><path d="M26.81,364.46h0c0-3.48,2.28-7,6.89-9.63,9.22-5.32,24.17-5.32,33.38,0,4.61,2.66,6.9,6.15,6.89,9.63h0v3.26h0c-.06,3.45-2.37,6.88-6.92,9.5-9.21,5.33-24.16,5.33-33.38,0-4.55-2.62-6.85-6.05-6.91-9.5h0Z" style="fill:#37474f"></path><path d="M67.1,354.83c9.22,5.32,9.22,13.95,0,19.27s-24.16,5.32-33.38,0-9.21-14,0-19.27S57.89,349.51,67.1,354.83Z" style="fill:#455a64"></path><path d="M47.87,166.35H53V362.94h0a1.18,1.18,0,0,1-.72,1.16,3.92,3.92,0,0,1-3.59,0,1.19,1.19,0,0,1-.73-1.16h0Z" style="fill:#37474f"></path><path d="M22.17,159.39h0l8.94-33.33H69.73l9,33.33h0c1.9,5.3-.71,11-7.84,15.16-11.27,6.5-29.54,6.5-40.81,0C22.87,170.43,20.27,164.69,22.17,159.39Z" style="fill:#0070BA"></path><path d="M22.17,159.39h0l8.94-33.33H69.73l9,33.33h0c1.9,5.3-.71,11-7.84,15.16-11.27,6.5-29.54,6.5-40.81,0C22.87,170.43,20.27,164.69,22.17,159.39Z" style="fill:#fff;opacity:0.5"></path><path d="M64.16,135.28c-7.59,4.38-19.9,4.38-27.5,0s-7.59-11.5,0-15.88,19.91-4.39,27.5,0S71.76,130.89,64.16,135.28Z" style="fill:#0070BA"></path><path d="M64.16,135.28c-7.59,4.38-19.9,4.38-27.5,0s-7.59-11.5,0-15.88,19.91-4.39,27.5,0S71.76,130.89,64.16,135.28Z" style="fill:#fff;opacity:0.65"></path><path d="M50.41,135.81A24.23,24.23,0,0,0,62.33,133c2.78-1.6,4.31-3.6,4.31-5.64s-1.53-4-4.31-5.65a24.23,24.23,0,0,0-11.92-2.82,24.22,24.22,0,0,0-11.91,2.82c-2.78,1.6-4.31,3.61-4.31,5.65s1.53,4,4.31,5.64A24.22,24.22,0,0,0,50.41,135.81Z" style="fill:#0070BA"></path><path d="M50.41,135.81A24.23,24.23,0,0,0,62.33,133c2.78-1.6,4.31-3.6,4.31-5.64s-1.53-4-4.31-5.65a24.23,24.23,0,0,0-11.92-2.82,24.22,24.22,0,0,0-11.91,2.82c-2.78,1.6-4.31,3.61-4.31,5.65s1.53,4,4.31,5.64A24.22,24.22,0,0,0,50.41,135.81Z" style="fill:#fff;opacity:0.5"></path></g></g><g id="freepik--side-table--inject-11"><g id="freepik--side-table--inject-11"><g id="freepik--side-table--inject-11"><polygon points="233.28 317.95 241.82 313.02 233.28 310.55 233.28 317.95" style="fill:#0070BA"></polygon><polygon points="233.28 317.95 241.82 313.02 233.28 310.55 233.28 317.95" style="opacity:0.2"></polygon><polygon points="233.28 317.95 229.01 315.48 229.01 308.09 233.28 310.55 233.28 317.95" style="fill:#0070BA"></polygon><polygon points="276.06 335.25 276.06 343.11 337.85 307.46 337.85 299.6 276.06 335.25" style="fill:#0070BA"></polygon><polygon points="276.06 335.25 276.06 343.11 337.85 307.46 337.85 299.6 276.06 335.25" style="opacity:0.2"></polygon><polygon points="276.06 343.11 271.79 340.65 271.79 332.79 276.06 335.25 276.06 343.11" style="fill:#0070BA"></polygon><polygon points="342.12 237.96 280.33 273.62 280.33 337.72 342.12 302.06 342.12 237.96" style="fill:#0070BA"></polygon><polygon points="280.33 273.62 224.74 241.52 224.74 305.62 280.33 337.72 280.33 273.62" style="fill:#0070BA"></polygon><polygon points="280.33 273.62 224.74 241.52 224.74 305.62 280.33 337.72 280.33 273.62" style="fill:#fff;opacity:0.2"></polygon><polygon points="224.74 241.52 286.53 205.87 342.12 237.96 280.33 273.62 224.74 241.52" style="fill:#0070BA"></polygon><polygon points="224.74 241.52 286.53 205.87 342.12 237.96 280.33 273.62 224.74 241.52" style="fill:#fff;opacity:0.4"></polygon><polygon points="276.06 295.81 229.01 268.64 229.01 303.16 276.06 330.32 276.06 295.81" style="fill:#0070BA"></polygon><polygon points="276.06 295.81 229.01 268.64 229.01 303.16 276.06 330.32 276.06 295.81" style="opacity:0.1"></polygon><polygon points="229.01 303.16 258.7 285.78 276.06 295.81 276.06 330.32 229.01 303.16" style="opacity:0.1"></polygon><polygon points="276.06 276.08 229.01 248.92 229.01 263.71 276.06 290.88 276.06 276.08" style="fill:#0070BA"></polygon><path d="M261.48,272.58c0,.68-2,.06-4.56-1.39l-8-4.61c-2.52-1.45-4.55-3.18-4.55-3.86v-1.23l17.08,9.86Z" style="fill:#fff"></path></g></g></g><g id="freepik--Chair--inject-11"><g id="freepik--Sofa--inject-11"><path d="M302.44,315.07h0a12.44,12.44,0,0,0,6,12.83l70.78,36.9.21,4.08,3.22,1.86-4.15,2.39L300.3,327.84Z" style="fill:#37474f"></path><path d="M376.34,391.13h0c.45-5.44-1.48-10.9-6.21-13.63l-63.79-36.83a6,6,0,0,0-8.9,4.2h0l4.26-25.39h0a12.19,12.19,0,0,0,5.92,12.57l66,38.16a3.15,3.15,0,0,0,4.95-2.58l.33-3.51Z" style="fill:#263238"></path><path d="M375,216.9,393,227.34,315.9,276.11a20.55,20.55,0,0,0-9.27,14l-11.24,72.74a1.26,1.26,0,0,1-1.87.88h0c-.42-.24-.66-.71-.51-2.48l6.42-77.29c.36-4.36,3.15-9.57,7.59-13.09Z" style="fill:#455a64"></path><path d="M465.16,327.8l-6-13.91h0l-.16-.37h0l-.28-.65.28.65a6,6,0,0,1-8.57,7.64l-3-1.75-4,2.33,8.09,4.67-66.71,38.51,1.79-10.64-2.68,16,71.65-41.49,4.44,2.56Z" style="fill:#263238"></path><path d="M383,365.92l68.19-39.4a9.52,9.52,0,0,0,4.31-7.46v-4a9.54,9.54,0,0,0-4.31-7.47L383,268.2a9.55,9.55,0,0,0-8.62,0l-68.19,39.37a9.54,9.54,0,0,0-4.31,7.47v4.07a9.51,9.51,0,0,0,4.31,7.46l68.19,39.35A9.49,9.49,0,0,0,383,365.92Z" style="fill:#0070BA"></path><path d="M383,365.92l68.19-39.4a9.52,9.52,0,0,0,4.31-7.46v-4a9.54,9.54,0,0,0-4.31-7.47L383,268.2a9.55,9.55,0,0,0-8.62,0l-68.19,39.37a9.54,9.54,0,0,0-4.31,7.47v4.07a9.51,9.51,0,0,0,4.31,7.46l68.19,39.35A9.49,9.49,0,0,0,383,365.92Z" style="fill:#fff;opacity:0.6000000000000001"></path><path d="M381.7,366.47a7.16,7.16,0,0,0,1.26-.55l68.19-39.4a9.53,9.53,0,0,0,4.3-7.46v-4a9.65,9.65,0,0,0-3.49-6.89c1.53,1.36,1.26,3.2-.81,4.4l-67.87,39.18Z" style="fill:#0070BA"></path><path d="M381.7,366.47a7.16,7.16,0,0,0,1.26-.55l68.19-39.4a9.53,9.53,0,0,0,4.3-7.46v-4a9.65,9.65,0,0,0-3.49-6.89c1.53,1.36,1.26,3.2-.81,4.4l-67.87,39.18Z" style="fill:#fff;opacity:0.30000000000000004"></path><path d="M301.84,315v4.07a9.51,9.51,0,0,0,4.31,7.46l68.19,39.36a9.68,9.68,0,0,0,7.36.53l1.58-14.73-.32.19a9.49,9.49,0,0,1-8.62,0l-68.19-39.37c-2.07-1.2-2.34-3-.81-4.41A9.66,9.66,0,0,0,301.84,315Z" style="fill:#0070BA"></path><path d="M301.84,315v4.07a9.51,9.51,0,0,0,4.31,7.46l68.19,39.36a9.68,9.68,0,0,0,7.36.53l1.58-14.73-.32.19a9.49,9.49,0,0,1-8.62,0l-68.19-39.37c-2.07-1.2-2.34-3-.81-4.41A9.66,9.66,0,0,0,301.84,315Z" style="fill:#fff;opacity:0.5"></path><path d="M358.7,282.2l68.2,39.38a8.93,8.93,0,0,0,5,1,6.31,6.31,0,0,0,.76-.08l.16,0,.45-.08.06,0a5.48,5.48,0,0,0,.67-.17,7.21,7.21,0,0,0,1.47-.62l3.51-2a12.13,12.13,0,0,0,5.19-7.39l10.37-57.88a6.35,6.35,0,0,0,.09-1.07c0-.15,0-.29,0-.43a7.91,7.91,0,0,0-.47-2.12,7.66,7.66,0,0,0-2.28-3.25l-.29-.23c-.15-.1-.3-.2-.46-.29L383,207.52a9.55,9.55,0,0,0-8.62,0l-3.51,2a9.92,9.92,0,0,0-2.07,1.69c-.12.12-.24.26-.34.38a12.88,12.88,0,0,0-1.26,1.7,3.14,3.14,0,0,0-.24.39l-.2.34c-.09.18-.18.34-.26.51s-.16.34-.23.51-.12.29-.17.43-.06.14-.08.2l-.12.39a4.43,4.43,0,0,0-.13.49c0,.12-.06.24-.09.36l-10.37,57.9A7.58,7.58,0,0,0,358.7,282.2Z" style="fill:#0070BA"></path><path d="M358.7,282.2l68.2,39.38a8.93,8.93,0,0,0,5,1,6.31,6.31,0,0,0,.76-.08l.16,0,.45-.08.06,0a5.48,5.48,0,0,0,.67-.17,7.21,7.21,0,0,0,1.47-.62l3.51-2a12.13,12.13,0,0,0,5.19-7.39l10.37-57.88a6.35,6.35,0,0,0,.09-1.07c0-.15,0-.29,0-.43a7.91,7.91,0,0,0-.47-2.12,7.66,7.66,0,0,0-2.28-3.25l-.29-.23c-.15-.1-.3-.2-.46-.29L383,207.52a9.55,9.55,0,0,0-8.62,0l-3.51,2a9.92,9.92,0,0,0-2.07,1.69c-.12.12-.24.26-.34.38a12.88,12.88,0,0,0-1.26,1.7,3.14,3.14,0,0,0-.24.39l-.2.34c-.09.18-.18.34-.26.51s-.16.34-.23.51-.12.29-.17.43-.06.14-.08.2l-.12.39a4.43,4.43,0,0,0-.13.49c0,.12-.06.24-.09.36l-10.37,57.9A7.58,7.58,0,0,0,358.7,282.2Z" style="fill:#fff;opacity:0.6000000000000001"></path><path d="M442.45,261.28l-10.37,57.89c-.48,2.7-2.81,3.78-5.19,2.41L358.7,282.21a7.61,7.61,0,0,1-3.43-7.39l10.37-57.89c.49-2.7,2.81-3.78,5.19-2.41L439,253.89A7.59,7.59,0,0,1,442.45,261.28Z" style="fill:#0070BA"></path><path d="M442.45,261.28l-10.37,57.89c-.48,2.7-2.81,3.78-5.19,2.41L358.7,282.21a7.61,7.61,0,0,1-3.43-7.39l10.37-57.89c.49-2.7,2.81-3.78,5.19-2.41L439,253.89A7.59,7.59,0,0,1,442.45,261.28Z" style="fill:#fff;opacity:0.5"></path><path d="M428.65,322.27a10,10,0,0,0,3.29.3,6.31,6.31,0,0,0,.76-.08l.61-.1.06,0a5.48,5.48,0,0,0,.67-.17,7.21,7.21,0,0,0,1.47-.62l3.51-2a12.13,12.13,0,0,0,5.19-7.39l10.37-57.88a6.35,6.35,0,0,0,.09-1.07c0-.15,0-.29,0-.43a7.91,7.91,0,0,0-.47-2.12L442,257.58a6.89,6.89,0,0,1,.43,3.7l-10.37,57.89c-.36,2-1.74,3.13-3.41,3A.3.3,0,0,1,428.65,322.27Z" style="fill:#0070BA"></path><path d="M428.65,322.27a10,10,0,0,0,3.29.3,6.31,6.31,0,0,0,.76-.08l.61-.1.06,0a5.48,5.48,0,0,0,.67-.17,7.21,7.21,0,0,0,1.47-.62l3.51-2a12.13,12.13,0,0,0,5.19-7.39l10.37-57.88a6.35,6.35,0,0,0,.09-1.07c0-.15,0-.29,0-.43a7.91,7.91,0,0,0-.47-2.12L442,257.58a6.89,6.89,0,0,1,.43,3.7l-10.37,57.89c-.36,2-1.74,3.13-3.41,3A.3.3,0,0,1,428.65,322.27Z" style="fill:#fff;opacity:0.30000000000000004"></path><path d="M477.57,350.1l-22.11-63.38h-8.09l13.53,31.94a9.11,9.11,0,0,1-4.41,9.47l-63.57,36.71a5,5,0,0,1-7.38-5.12l-4.88,28.8a17.52,17.52,0,0,1,8.4-12.11l70.67-40.81a7.23,7.23,0,0,1,8.93,1.4l6,14.22a1.57,1.57,0,0,0,.64.73A1.55,1.55,0,0,0,477.57,350.1Z" style="fill:#37474f"></path><path d="M451.92,269.11l-62.27,49.43A20.54,20.54,0,0,0,382,332.92l-7.39,76.5a1.25,1.25,0,0,0,.63,1.19h0a1.26,1.26,0,0,0,1.87-.88l12.19-71.94a20.56,20.56,0,0,1,9.27-14l53.13-33.59a17.18,17.18,0,0,0,1.49-28Z" style="fill:#455a64"></path></g></g><g id="freepik--character-2--inject-11"><g id="freepik--Character--inject-11"><g id="freepik--Bottom--inject-11"><path d="M113.77,416.81c-.34,5-1.31,8.32-3.52,11.17s-6.41,3.58-10.67,2.51-9.71-3.65-10.94-8.06-1-7.38,0-12Z" style="fill:#263238"></path><path d="M96.73,379.46c-1.76,0-2.25,6.78-3.24,13.51-1,7.22-3.74,10.09-4.69,16-1.08,6.76-.63,9.82,2.36,14.08s13.49,8.81,18.65,3.16c4.2-4.6,4.36-9.92,4-16.74-.42-7.05-.79-12-.45-17.33.33-5.08.75-10-.78-10.64-.11.75-.22,1.69-.34,2.42-.1.56-.26,3.31-1.24,3.29a8.22,8.22,0,0,1,0-1.92,2,2,0,0,0-.49-1.67,3.85,3.85,0,0,0-1.94-.79c-1.73-.36-3.47-.69-5.22-.9-.87-.11-1.75-.18-2.62-.22a8.62,8.62,0,0,0-2.22.15,1.37,1.37,0,0,0-1,.65,1.82,1.82,0,0,0-.09.77,4.38,4.38,0,0,1-.21,1.39c-.06.19-.24.43-.49.37a.42.42,0,0,1-.28-.42c0-.83,0-1.41,0-2.37,0-.44,0-1,0-1.48A3.06,3.06,0,0,1,96.73,379.46Z" style="fill:#455a64"></path><path d="M89.19,407.06c-.17,1-1.18,7.42,1,8.7,2.39,1.39,3.68-3.66,3.68-3.66s5.59-1.11,13.73,2.15c-.41,1,.86,4.57,3.09,3.94s3.06-8,3.07-8.13c.37,6.53.1,11.68-4,16.15-5.16,5.65-15.67,1.11-18.65-3.16S87.72,415.73,88.8,409C88.91,408.3,89,407.67,89.19,407.06Z" style="fill:#37474f"></path><path d="M94.54,412.56c0,2.46-3.05,1.49-3.2-2S93.54,399,93.49,393c1-6.73,1.48-13.48,3.24-13.51,0,.08,0,1.48-.06,1.57l-.17,2.12a11.49,11.49,0,0,0-.09,1.47c0,5-.88,14.67-1.4,19.24A63.44,63.44,0,0,0,94.54,412.56Z" style="fill:#37474f"></path><path d="M106.69,414.13a63.13,63.13,0,0,0,1.64-8.55c.59-4.52,2.08-14,3.26-18.89.27-1.06.49-2.27.55-2.68.15-1.06.25-1.62.35-2.33,0-.11,0-.14,0-.18,1.18.41,1.19,3.21,1,6.61-.22,2-.6,4.38-1.14,7.3-1.48,5.79-1.17,14.31-2.14,17.65S106.12,416.52,106.69,414.13Z" style="fill:#37474f"></path><path d="M107.81,414.45a1.05,1.05,0,0,1-.24-.06,25.65,25.65,0,0,0-13.5-1.78.72.72,0,0,1-.8-.41.5.5,0,0,1,.46-.62,27,27,0,0,1,14.44,1.91.5.5,0,0,1,.28.72A.65.65,0,0,1,107.81,414.45Z" style="fill:#263238"></path><path d="M109.25,409.18l-.22-.06a31.86,31.86,0,0,0-15.11-2,.71.71,0,0,1-.78-.43.49.49,0,0,1,.48-.6,33,33,0,0,1,16,2.1.5.5,0,0,1,.31.71A.64.64,0,0,1,109.25,409.18Z" style="fill:#263238"></path><path d="M94.32,402.09a.73.73,0,0,1-.55-.38.49.49,0,0,1,.41-.65c7.85-1.76,15.62,1.83,15.95,2a.49.49,0,0,1,.27.72.71.71,0,0,1-.87.18c-.08,0-7.63-3.51-14.93-1.87A.86.86,0,0,1,94.32,402.09Z" style="fill:#263238"></path><path d="M94.62,398a.69.69,0,0,1-.55-.37.47.47,0,0,1,.39-.64,24.9,24.9,0,0,1,16.27,1.95.48.48,0,0,1,.22.73.72.72,0,0,1-.89.13A23.69,23.69,0,0,0,94.9,398,.66.66,0,0,1,94.62,398Z" style="fill:#263238"></path><path d="M94.91,393.21a.72.72,0,0,1-.55-.37.47.47,0,0,1,.38-.65c8.09-2.05,16.05,1.93,16.39,2.11a.48.48,0,0,1,.24.72.73.73,0,0,1-.89.15c-.08,0-7.77-3.88-15.28-2A1,1,0,0,1,94.91,393.21Z" style="fill:#263238"></path><path d="M200.39,402.41c.33,0,.78,3.32-1,4.71-2.09,1.59-8.2,4.18-16.2,3.12s-12.32-3.38-15.5-5.87-7.62-6-11.24-6.79c-3.36-.73-7-2.17-8.07-3.13s-.85-5.19-.85-5.19Z" style="fill:#263238"></path><path d="M150.92,373.06a1.29,1.29,0,0,0-1.23,1c-.26,1.16-.57,4.54-1.13,6.44-.77,2.64-1.34,8.08-.93,10.25s5.88,3.75,9.38,5a45.53,45.53,0,0,1,11.28,6.71c3.73,2.88,11.61,5.94,16.84,6,6.19.05,13.18-1.68,14.81-4.27,2-3.21,3.51-6.95-5.61-10.95-1.72-.76-7.77-4.13-9.83-5.35-5.58-3.31-9.5-6.32-12-12.07a3.21,3.21,0,0,0-1.3-1.76,3.15,3.15,0,0,0-1.78-.17c-1.53.17-7.63.85-9,1.44-1.24.51-3,1.11-3,2.55a4.35,4.35,0,0,0,.32,1.46c.11.3.19.69-.09.86s-.62,0-.86-.23a21.75,21.75,0,0,1-2.43-2.74,8.52,8.52,0,0,0-1.44-1.37,14.9,14.9,0,0,1-1.55-.95C150.8,374.36,150.94,373.73,150.92,373.06Z" style="fill:#455a64"></path><path d="M168.29,402.44a60.4,60.4,0,0,0-5-3.47h0s10.71,6.13,15.1,3.47c2.83-1.7,1.53-3.85,1.47-4.53s9.92-5.33,12.65-5.58h0c.75.39,1.39.71,1.78.88,9.12,4,7.63,7.74,5.61,10.95-1.63,2.59-6.71,4.56-14.7,4.45C180,408.52,172,405.32,168.29,402.44Z" style="fill:#37474f"></path><path d="M179.17,395.92c5.68,2.15,3.23,3.09,1.63,3.28s-11.13-5.06-16.92-9.37c-6-4.48-9.83-9.35-12.07-11-.84-.62-1.74-1.37-2.54-2.07.16-1.14.3-2.18.42-2.73a1.29,1.29,0,0,1,1.23-1c0,.67-.12,1.3.43,1.81a14.9,14.9,0,0,0,1.55.95,8.52,8.52,0,0,1,1.44,1.37,21.75,21.75,0,0,0,2.43,2.74C161.67,385.76,173.5,393.76,179.17,395.92Z" style="fill:#37474f"></path><path d="M180.41,398.43a.66.66,0,0,1-.36-.13.48.48,0,0,1-.07-.72c1.64-1.77,9.32-5.93,13.51-5.45a.52.52,0,0,1,.49.57.53.53,0,0,1-.62.45c-3.92-.44-11.22,3.69-12.51,5.09A.59.59,0,0,1,180.41,398.43Z" style="fill:#263238"></path><path d="M175.47,395.57a.63.63,0,0,1-.35-.13.48.48,0,0,1-.07-.72c1.63-1.77,9.31-5.93,13.51-5.45a.52.52,0,0,1,.49.57.56.56,0,0,1-.63.45c-3.91-.43-11.22,3.69-12.51,5.09A.58.58,0,0,1,175.47,395.57Z" style="fill:#263238"></path><path d="M170.53,392.85a.57.57,0,0,1-.35-.12.48.48,0,0,1-.07-.72c1.63-1.78,9.32-5.94,13.51-5.45a.52.52,0,0,1,.49.57.55.55,0,0,1-.63.45c-3.91-.44-11.21,3.69-12.51,5.09A.55.55,0,0,1,170.53,392.85Z" style="fill:#263238"></path><path d="M166,389.77a.57.57,0,0,1-.35-.12.48.48,0,0,1-.07-.72c1.63-1.78,9.34-5.93,13.51-5.46a.53.53,0,0,1,.49.58.54.54,0,0,1-.62.45c-3.91-.44-11.22,3.68-12.52,5.09A.59.59,0,0,1,166,389.77Z" style="fill:#263238"></path><path d="M161.49,386.69a.57.57,0,0,1-.35-.12.48.48,0,0,1-.08-.72c2.25-2.52,10.28-6,14.47-5.49a.53.53,0,0,1,.5.57.55.55,0,0,1-.63.45c-3.77-.43-11.47,2.89-13.47,5.12A.56.56,0,0,1,161.49,386.69Z" style="fill:#263238"></path><path d="M117.92,171.74c-8.11,15.14-11.47,23.79-13.3,52s-2.09,77-2.09,77-5.16,12.51-7,32.79-3.12,51.71-3.12,51.71-.12,3.86,11.56,5.37,12.64-2.21,12.64-2.21,10.7-42.44,15.21-64c4.94-23.65,11.34-52.84,11.34-52.84l3.07,27.74s-2.86,7.07-2.11,25.83,4.46,52.65,4.46,52.65,13.15,6,25.7-.48c0,0,5.52-56.55,7.31-91.23s2.14-72.82-2.18-97.44Z" style="fill:#0070BA"></path><path d="M117.92,171.74c-8.11,15.14-11.47,23.79-13.3,52s-2.09,77-2.09,77-5.16,12.51-7,32.79-3.12,51.71-3.12,51.71-.12,3.86,11.56,5.37,12.64-2.21,12.64-2.21,10.7-42.44,15.21-64c4.94-23.65,11.34-52.84,11.34-52.84l3.07,27.74s-2.86,7.07-2.11,25.83,4.46,52.65,4.46,52.65,13.15,6,25.7-.48c0,0,5.52-56.55,7.31-91.23s2.14-72.82-2.18-97.44Z" style="fill:#fff;opacity:0.6000000000000001"></path><g style="opacity:0.5"><path d="M143.14,271.54l7.16-42s14.86-.37,19.82-7A20,20,0,0,1,155,233.9l-7.15,36.34-1.67,29Z" style="fill:#0070BA"></path></g></g><g id="freepik--Top--inject-11"><g id="freepik--Head--inject-11"><path d="M116.47,100.48c3.35-2.92,5.23-7.2,6.4-11.49s1.08-7.36,2.41-11.6,3.53-8.42,7.18-11c.3-.21.62-.41.94-.59a11.39,11.39,0,0,1,8.69-1.15,5.23,5.23,0,0,1,2.62,1.47,6.65,6.65,0,0,1,1,2.42c.89,3.21,1.82,6.38,2.45,9.65a77.82,77.82,0,0,1,1.28,10.53,78.6,78.6,0,0,1-.14,10.52,39.5,39.5,0,0,1-2.45,11.54,15,15,0,0,1-6.52,7.8,7.55,7.55,0,0,1-10,3.86c-1.71-.88-3.46-2.49-5.25-1.8-.88.33-1.5,1.18-2.39,1.49a2.94,2.94,0,0,1-3.19-1.2,7,7,0,0,1-1.11-3.42,23,23,0,0,1,2.08-12.3,7.88,7.88,0,0,1-3.67.53,2.67,2.67,0,0,1-2.33-2.5C114.51,102.09,115.58,101.26,116.47,100.48Z" style="fill:#263238"></path><path d="M142.05,110.72c.2-3.2-2.75-6.66-5.9-12.31s-9.76-23.61.63-26.5c.69-8.56,9.19-15.68,24.27-16,9.29-.21,17.46,3.83,21.49,8.59,4.19,5,5.32,16.08-2.33,20.13C174.46,100.25,142.05,110.72,142.05,110.72Z" style="fill:#37474f"></path><path d="M177.93,69.68c3.24,1.92,4.16,9,3.8,22.28-.6,12-3.72,16.59-8.39,19-2.29,1.19-5.93,1.63-10.36.89l-.83,4.87s11.18,13,1,14.29c-5.09.64-10.1-2.31-14.41-5.73S141.61,115,141.61,115l1.51-14.69s-3.1,2.91-7.52-1c-3.64-3.2-4.87-8.58-2-11.47s8.33-2.13,10.34,2c0,0,3.73,4.51,4.21-1.38.06-.81,0-2.83,0-3.7,2.77-.42,6.85.26,6.87-7.26C162.22,74.25,172.23,79.91,177.93,69.68Z" style="fill:#ffa8a7"></path><path d="M163.35,97.73l5.25,1.84a2.74,2.74,0,0,1-3.5,1.8A2.91,2.91,0,0,1,163.35,97.73Z" style="fill:#b16668"></path><path d="M165.1,101.37a2.42,2.42,0,0,0,.58.13,2.57,2.57,0,0,0-2.42-2.39A2.83,2.83,0,0,0,165.1,101.37Z" style="fill:#f28f8f"></path><path d="M179.82,81.62,174.73,80a2.56,2.56,0,0,1,3.25-1.8A2.8,2.8,0,0,1,179.82,81.62Z" style="fill:#263238"></path><path d="M164,80.38l-5.34,1.84a2.71,2.71,0,0,1,1.64-3.58A3,3,0,0,1,164,80.38Z" style="fill:#263238"></path><path d="M168.75,82.46l.81,13.15,7.23-1.56C174.09,88.62,172.37,85.55,168.75,82.46Z" style="fill:#f28f8f"></path><path d="M163,111.86c-4.67-.62-13.86-3.45-16.56-9.72A14.88,14.88,0,0,0,150,109a22,22,0,0,0,12.53,5.83Z" style="fill:#f28f8f"></path><path d="M175.42,85.9a2.07,2.07,0,0,0,1.78,2.25,1.94,1.94,0,0,0,2.22-1.71,2.07,2.07,0,0,0-1.78-2.25A1.94,1.94,0,0,0,175.42,85.9Z" style="fill:#263238"></path><path d="M160.69,86.21a2.06,2.06,0,0,0,1.78,2.25,1.94,1.94,0,0,0,2.21-1.7,2.07,2.07,0,0,0-1.78-2.26A1.94,1.94,0,0,0,160.69,86.21Z" style="fill:#263238"></path></g><g id="freepik--Arm--inject-11"><path d="M274.38,180.6c1.47-1.36,1.63-3-.65-3.62-5.38-1.4-8.7,1.67-14,3a18.74,18.74,0,0,1-6.27,0,24.21,24.21,0,0,0,4.31-1.9c4.48-2.86,2.75-7,.18-5.82-3.24,1.46-7.6,1.05-12.23,2-6.58,1.35-6.44,2.66-10.4,3.42-1.74.34-5.22.34-13.08-1-4.15-.73-18.65-4.33-24.42-5.7,0,0-5.13-18.65-8.33-28.48-5.17-15.85-10.71-21.67-19.6-23.79a265.21,265.21,0,0,0-3.43,28.22s5.68,24.27,10.29,36c4.23,10.78,4.79,10.51,14.48,11.87,11.19,1.57,27.91,1.42,34.64,1.68a116.83,116.83,0,0,1,18,1.84c6.6,1.23,8.69,1.65,12.92,1.27a44.21,44.21,0,0,0,10.41-3.15c6.79-3.39,6.78-6.52,6.5-7.7.76-.53,1.64-3.07.52-3.92A2.8,2.8,0,0,0,274.38,180.6Z" style="fill:#ffa8a7"></path><path d="M199.3,170.11l19.82,5.24s-2.73,3.53-4.05,10.24,1.13,10.91,1.13,10.91-12.71.14-21-.76-12.14-1.37-14.52-3.55-5-9.62-6.75-14.83-8.09-30.19-8.09-30.19l4-28.53A19.69,19.69,0,0,1,181,125.13c5.08,5.72,6.34,11.94,10,21.84C194,155,199.3,170.11,199.3,170.11Z" style="fill:#ebebeb"></path><path d="M169.94,118.14c6.38.77,12.07,5.78,15.2,12,3.4,6.74,11.35,28.79,11.35,28.79s-5.93,6.85-14.26,9.57-11,2.49-11,2.49l-5.74-23.79S167.78,120.3,169.94,118.14Z" style="fill:#0070BA"></path><path d="M169.94,118.14c6.38.77,12.07,5.78,15.2,12,3.4,6.74,11.35,28.79,11.35,28.79s-5.93,6.85-14.26,9.57-11,2.49-11,2.49l-5.74-23.79S167.78,120.3,169.94,118.14Z" style="fill:#fff;opacity:0.30000000000000004"></path><path d="M250.15,182.88c-5.2,3.72-10.9,3.58-13.84,2.19C238.71,188.07,247.21,188.68,250.15,182.88Z" style="fill:#f28f8f"></path></g><g id="freepik--Chest--inject-11"><path d="M162.15,116.73s4.25,8.85,1.42,13.11c-11.87-2.44-18.21-10.7-22-14.83,0,0-12.47,2.85-15.49,3.49s-7.72,5.89-8.63,19.4c-.74,10.91.93,31.48.93,31.48C114,180.1,108.07,194.17,106.2,207c21.84,17.71,57.47,18.3,76.4,5.41-.13-14.59-4.14-26.43-4.66-33.76a42,42,0,0,1,2-13.3,15.24,15.24,0,0,0,7.31-10c1.39-7.06.54-12.25-5.62-21.38-5.15-7.64-11.7-15.9-11.7-15.9Z" style="fill:#0070BA"></path><path d="M162.15,116.73s4.25,8.85,1.42,13.11c-11.87-2.44-18.21-10.7-22-14.83,0,0-12.47,2.85-15.49,3.49s-7.72,5.89-8.63,19.4c-.74,10.91.93,31.48.93,31.48C114,180.1,108.07,194.17,106.2,207c21.84,17.71,57.47,18.3,76.4,5.41-.13-14.59-4.14-26.43-4.66-33.76a42,42,0,0,1,2-13.3,15.24,15.24,0,0,0,7.31-10c1.39-7.06.54-12.25-5.62-21.38-5.15-7.64-11.7-15.9-11.7-15.9Z" style="fill:#fff;opacity:0.5"></path><path d="M172.74,135l.31-3.82a55.52,55.52,0,0,1-9.48-1.36c-11.87-2.44-18.21-10.7-22-14.83l-3.62.83c2.71,5.12,11.23,13.92,20.23,16.81S172.74,135,172.74,135Z" style="fill:#0070BA;opacity:0.4"></path><path d="M163.57,129.84c1.39.31,2.73.58,4,.78,0,0,2-5.13-1.27-13.14l-4.13-.75S166.4,125.58,163.57,129.84Z" style="fill:#0070BA;opacity:0.6000000000000001"></path><path d="M135.7,152.06s-2.25,8.48,7.33,13.58c8.77,4.67,17.76.16,17.76.16s-6.9,7.71-19.16,2.14C131,163.1,135.7,152.06,135.7,152.06Z" style="fill:#0070BA;opacity:0.6000000000000001"></path></g><g id="freepik--arm--inject-11"><path d="M186.46,227.37c-.81-1.73-3.94-2-8.18-2.78s-8.52-3.35-9.45-4.76-2.45-3.86-1.39-5.19,5-2.14,7.13-2.64c2.75-.64,5.27-1.37,6-3.63.19-3.23-4-1.39-7.06-1.48s-6.89-1.29-10.8-.86-7.4.8-8.74.47-3.31-1.38-12.06-5.73-25.52-15.52-25.52-15.52,11.48-28.6,13.2-35.67c2.27-9.32,2.9-20.65-.42-30.69-2.78.25-11.08,1.83-18.84,12.22-7.07,9.46-18.7,41-20.73,52.55-1.53,8.64-1.49,12.39,9.24,18.8,7.84,4.69,27.73,12.7,37.72,16.62l9.28,3.75c2.89,1.17,5.29,3.44,7.57,5.51,1.16,1,2.31,2.12,3.52,3.13a7.72,7.72,0,0,0,3.57,2.05,62.24,62.24,0,0,0,8.18.8,8.48,8.48,0,0,0,5.05-1,3.75,3.75,0,0,1,1-.57,2.85,2.85,0,0,1,1-.08,13.07,13.07,0,0,0,4.38-.73,4.15,4.15,0,0,0,1.49-.66,8.84,8.84,0,0,1,1.68-1.23,6.61,6.61,0,0,1,2.28-.21C187,229.81,187.27,229.1,186.46,227.37Z" style="fill:#ffa8a7"></path><path d="M131.57,130.88c.85,8.16.91,11.39-2.12,20.82l-12.53,33.37,14.77,9.6a40.89,40.89,0,0,0-7.15,8.68,19.22,19.22,0,0,0-2.72,10.38S104,206.77,98.55,203s-8.49-5.83-9.44-8.6S87.57,188,90,178.85s7.17-20.19,10.62-29.37,8.31-20.8,14.36-25.2a27.36,27.36,0,0,1,14.11-5.64S130.72,122.73,131.57,130.88Z" style="fill:#f5f5f5"></path><path d="M116.92,185.07c-4.27-2.74-10.49-4.71-12.51-4.55,5.9-1.41,13.39,2.19,13.39,2.19Z" style="fill:#e0e0e0"></path><path d="M129.59,117.73a30.22,30.22,0,0,0-11.39,3.77c-5.4,3.2-7.8,5.52-12,13S93.72,163.8,93.72,163.8s3,3.32,12,7.09,15.7,3.1,15.7,3.1,7.34-17.87,9.09-23C135.56,136.35,131.48,120.87,129.59,117.73Z" style="fill:#0070BA"></path><g style="opacity:0.30000000000000004"><path d="M129.59,117.73a30.22,30.22,0,0,0-11.39,3.77c-5.4,3.2-7.8,5.52-12,13S93.72,163.8,93.72,163.8s3,3.32,12,7.09,15.7,3.1,15.7,3.1,7.34-17.87,9.09-23C135.56,136.35,131.48,120.87,129.59,117.73Z" style="fill:#fff"></path></g></g></g></g></g><g id="freepik--character-1--inject-11"><g id="freepik--character--inject-11"><g id="freepik--bottom--inject-11"><path d="M218.77,371.85c-.19-.45-5,2.73-5.49,3.11-2.63,2.21-5.68,5.72-6.1,9.26-.32,2.67.78,5.24,1.78,7.7,1.79,4.4,1.68,9,2,13.76.08,1.24.15,2.47.34,3.7a21,21,0,0,0,20.2,18c3.05,0,6.81-1.76,6.19-5.38-.47-2.73-1.76-5.39-2.47-8.07a98.93,98.93,0,0,1-2.67-14c-.08-1.3-8.72-15.94-9.9-18.81Q220.71,376.48,218.77,371.85Z" style="fill:#263238"></path><path d="M215.33,393.6c.28,2.26,2.06,14.16,10.45,18,4.65,2.12,7.39.51,6.95-3.21a59.14,59.14,0,0,1,4.91-29.71c1.86-4.11,9.07-16.67,11.13-20.24s14.64-22.36,21.22-33.26l.24-.4.17-.27c6.84-11.28,12.85-22.35,16.06-31.28.16-.43.32-.87.46-1.29,0,0,0-.09.05-.13h0c1.59-4.69,2.27-8.62,1.72-11.44l-19.12,2.77-15.78-7.87c-1.47,8-5.82,14.15-8.74,21.71-2.78,7.19-13.42,18.86-18.19,37.68-3.71,14.61-4.91,29.73-5.75,31.58S218.55,372,218,373C214.6,378.6,213.58,379.29,215.33,393.6Z" style="fill:#ffa8a7"></path><path d="M261.46,398.79c-.28-.27-2.93,5.7-3.13,6.22a25.86,25.86,0,0,0-1.81,8.64,7,7,0,0,0,.31,2.46,6.44,6.44,0,0,0,1.63,2.31c3.35,3.28,8.06,4.66,12.26,6.72a35.32,35.32,0,0,1,8.28,5.23c2.42,2.16,4.69,4.54,7.51,6.2a18.33,18.33,0,0,0,5.89,1.86,38.31,38.31,0,0,0,7.56.45c3.27-.21,6.26-.88,8.73-3.28,1.81-1.75,2.84-4.88,1.31-7.12a9.83,9.83,0,0,0-1.69-1.78c-3.11-2.75-6.41-5.24-9.62-7.89a31,31,0,0,0-6.49-4.56c-2.38-1.11-4.76-2.14-7.12-3.27l-8.2-3.91-8.39-4c-1.4-.67-2.79-1.36-4.19-2A10,10,0,0,1,261.46,398.79Z" style="fill:#263238"></path><path d="M284.37,399.64a40.39,40.39,0,0,1,.77-11.4c.51-2.77.52-5.57.94-8.38q.71-4.65,1.44-9.3c2.11-13.34,3.94-26.6,6.08-40,1.34-8.41,2.59-16.85,3.52-25.32a21.6,21.6,0,0,0-.08-7.44c-2.46-10.13-14.19-8.2-22.14-8.51l-20.5-.8h-.25a164.79,164.79,0,0,1,3.2,27c.4,8.29-2.77,27.16.54,47.75,2.58,16,3.53,26.85,3.52,29,0,1.81,0,3.63,0,5.44,0,2.09-.67,4.28-.46,6.34a7.5,7.5,0,0,0,1.45,3.47,25.21,25.21,0,0,0,5.45,5.16q3.75,2.86,7.62,5.6c5.41,3.81,11.6,8.27,18.5,8.18,2.24,0,5.47-.44,6.64-2.7.61-1.16-.21-2.65-1-3.51-4.56-4.95-10.78-8.63-13.63-14.72A18.9,18.9,0,0,1,284.37,399.64Z" style="fill:#ffa8a7"></path><path d="M257.35,315.48c0,3.22-.29,6.42-.55,9.63s-.47,6.41-.65,9.63a154.1,154.1,0,0,0,.18,19.34c.24,3.22.68,6.42,1.18,9.6l1.5,9.49q.72,4.75,1.34,9.53c.43,3.18.84,6.36,1.06,9.57a187.07,187.07,0,0,0-1.66-19.22c-.76-6.39-2.05-12.68-2.45-19.06-.29-3.19-.4-6.39-.48-9.6s0-6.41.08-9.62.23-6.42.38-9.63S257.56,318.7,257.35,315.48Z" style="fill:#f28f8f"></path><path d="M225,225.23c-13.66,9.33-18.67,66.45-26.56,125.36,0,0,18.64,12.52,53.66,14s55.45-12.72,55.45-12.72.26-81.25-8.46-127.55Z" style="fill:#263238"></path></g><g id="freepik--top--inject-11"><path d="M291.67,108.82c2.21-2,2.15-6.23.62-8.83-5.52-9.38-17.22-10.59-24.64-10.44-6.28.12-12.79,2.29-16.87,5.68-5.28,4.4-6.67,8-6.17,13.88-5.22,1.27-7.44,5.21-8.29,10.34s1.89,12,5.09,16.32,4.89,5.86,8.34,10.39c.44.58,31.23-17.6,34.49-20.27,3-2.45,7.49-4.41,8.78-8.12a9.26,9.26,0,0,0,.36-4.58,4.72,4.72,0,0,0-2.56-3.72A6,6,0,0,0,291.67,108.82Z" style="fill:#e0e0e0"></path><path d="M248.86,91.56a7.3,7.3,0,0,0-6.57.57,3.74,3.74,0,0,0-3.38-.82A8,8,0,0,0,235.74,93a19.11,19.11,0,0,0-4.76,5.6,10.42,10.42,0,0,0-1.55,6.14,5.55,5.55,0,0,0,3.73,4.78,5.41,5.41,0,0,0,2.48,5.65,7.59,7.59,0,0,0,6.35.6,13.06,13.06,0,0,0,5.37-3.69C251.5,107.58,257,94.9,248.86,91.56Z" style="fill:#e0e0e0"></path><g id="freepik--arm--inject-11"><path d="M278.59,151.81c17.73.54,22.58,8,42.13,22,13.75,9.8,15.4,29.15,15.4,29.15s-6,7.42-26.52-3.49c-17.94-9.52-32.7-18-32.7-18Z" style="fill:#e0e0e0"></path><path d="M318.12,200.69c-4.72-2.27-6.64-5.1-9.47-10.66s-8.3-23-8.3-23Z" style="opacity:0.1"></path><path d="M293.26,136.51s-.71-.13-1.26-1.39-.69-2.21-1.28-3.62-1.92-3.68-3.37-3.55-1.27,3.41-.61,5.92a11.52,11.52,0,0,1,.14,7.3,9.93,9.93,0,0,0,2.13,9.77Z" style="fill:#f28f8f"></path><path d="M306.16,178.27c4.57,9.5,5.36,11.77,7.45,15.27a15.73,15.73,0,0,0,7.16,6.89,24,24,0,0,0,10.18,3,7.76,7.76,0,0,0,3.43-.31c2.71-1.06,3.12-3.81,3-6.88a30.43,30.43,0,0,0-4.41-15.7c-1.34-2.15-2.07-3.07-6.49-8.25-3.6-4.21-6.43-7.16-11.37-13.41-4.47-5.67-8.53-11.25-10.22-14.76s-2.37-6.06-2.35-8.28c0-3.39.57-3.42-1.5-6.84-1.44-2.23-2.23-5.33-3-7.2a22.09,22.09,0,0,0-3.26-5.06c-1.37-1.7-2.72-4-3.5-4.1s-1.76,1-1.27,2.57c0,0-1.25-.86-2.37-1.81s-2.09-2.26-3.28-2.2-1.23,2-.49,3S285.1,116,285.1,116s-1,.8.63,2.7a11.53,11.53,0,0,0,2.24,2,11,11,0,0,0,2.39,3.52,20.32,20.32,0,0,0,2.69,3.79c-.07,1.26-.62,2.9,0,4.89s1.05,2.36-.61,5.42c-1.11,2.06-3.28,4.67-4.12,7.32s-.47,4.47,1.51,6.63c1.69,1.84,4.48,2.74,6.83,6.77C298.49,162.2,300.56,166.64,306.16,178.27Z" style="fill:#ffa8a7"></path><path d="M290,115.21a13.19,13.19,0,0,0,1.16,1.83c.43.57.9,1.13,1.36,1.65l.07.08,0,.14a9.79,9.79,0,0,0,.24,1.12,7.82,7.82,0,0,0,1.68,3l.13.14,0,.16a8,8,0,0,0-.08.88c0,.3,0,.61,0,.91s.06.61.12.91a9.41,9.41,0,0,0,.25.91,5.16,5.16,0,0,1-.82-1.74,6,6,0,0,1-.18-1,5.62,5.62,0,0,1,0-1l.1.3a6.14,6.14,0,0,1-1.53-2.08,6.75,6.75,0,0,1-.44-1.21,6,6,0,0,1-.2-1.29l.09.22a11.32,11.32,0,0,1-1.22-1.87A7.12,7.12,0,0,1,290,115.21Z" style="fill:#f28f8f"></path><path d="M285.1,116a7.69,7.69,0,0,0,1,.7,9,9,0,0,0,1.11.5l.08,0,.06.1a9.47,9.47,0,0,0,1.62,2,6.94,6.94,0,0,0,2.11,1.38l.24.1,0,.27a7.37,7.37,0,0,0,.24,1.39,11.81,11.81,0,0,0,.47,1.38,12.68,12.68,0,0,0,.65,1.34c.23.45.51.86.79,1.3a9.52,9.52,0,0,1-1.1-1.1,8.85,8.85,0,0,1-.89-1.28,8,8,0,0,1-.64-1.43,6.16,6.16,0,0,1-.34-1.58l.26.36a5.65,5.65,0,0,1-1.29-.67,6.33,6.33,0,0,1-1.08-.92,7.5,7.5,0,0,1-1.54-2.32l.13.13a5.09,5.09,0,0,1-1.07-.74A4.19,4.19,0,0,1,285.1,116Z" style="fill:#f28f8f"></path><path d="M285.1,116s-1,.8.63,2.7a11.53,11.53,0,0,0,2.24,2,12.79,12.79,0,0,0,2,3.11,57.38,57.38,0,0,0-1.1-9.41c-.38-.29-.81-.62-1.22-1-1.13-1-2.09-2.26-3.28-2.2s-1.23,2-.49,3S285.1,116,285.1,116Z" style="fill:#f28f8f"></path><path d="M294.41,130.49a6,6,0,0,1,.06,2.76,8.54,8.54,0,0,1-1,2.58c.07-.45.19-.9.29-1.34s.21-.88.29-1.32A19.64,19.64,0,0,0,294.41,130.49Z" style="fill:#f28f8f"></path><path d="M289.53,142.7a11.22,11.22,0,0,0,.77,4.83,9.09,9.09,0,0,0,1.24,2.07,18.66,18.66,0,0,0,1.74,1.84,6.94,6.94,0,0,1-2.23-1.4,6.57,6.57,0,0,1-1.52-7.34Z" style="fill:#f28f8f"></path><path d="M300.35,167.06c6.85.67,13.76-6.5,14.21-10.11,12,13.43,16.6,18.82,19.45,23.61s8.22,21-.3,23.83-17.68-3.76-21.06-10C310.63,190.61,300.35,167.06,300.35,167.06Z" style="fill:#e0e0e0"></path></g><path d="M249,151.35c-1.72.21-12.77,3.94-16.24,5.49-8.08,3.61-12.77,12.31-13.59,21.22-.57,6.24.62,12.48,1.82,18.62s2.42,12.38,1.91,18.62c-.36,4.4-.32,7.7,3,11,2.55,2.5,6.57,3,9.91,3.75a142.54,142.54,0,0,0,29.94,3.79,83.62,83.62,0,0,0,10.85-.4c7.94-.88,20.23-2.83,23.6-11.26,1.86-4.65.12-9.86-.34-14.85-.77-8.39,4.54-16,3-24.22-2.27-12.45-11.36-20.28-24.3-31.27l-9.32-.53S256.89,150.39,249,151.35Z" style="fill:#f5f5f5"></path><g id="freepik--arm--inject-11"><path d="M286.67,251.77,282.79,450c0,.73.68,1.47,2.09,1.85a5.12,5.12,0,0,0,2.4,0c1.43-.32,2.15-1,2.17-1.76l3.88-198.19Z" style="fill:#0070BA"></path><path d="M282.79,450c0,.73.68,1.47,2.09,1.85a5.12,5.12,0,0,0,2.4,0c1.43-.32,2.15-1,2.17-1.76l.1-5.17c0,.73-.74,1.44-2.17,1.76a5,5,0,0,1-2.39,0c-1.42-.38-2.12-1.12-2.1-1.85Z" style="fill:#37474f"></path><path d="M300.15,247.81c-.09-.25-.28-.76-.41-1.08-.64-1.54-1.18-2.38-1.73-3.66a20.49,20.49,0,0,0-2.19-3.8c-.67-.75-1.37-1.23-3.37-1.17-6.62.19-9.68.51-15.2,1a8.94,8.94,0,0,1-3.11-.55c-1.32-.41-15.42-7.84-16.84-8.54,0,0-4,1.21-7.32,7.7-2,4-2.11,10.93-2.11,10.93l23.2,8s4.6,2.07,8.19-.68c0,0-.63,1.75.94,2.2a3.39,3.39,0,0,0,2.95-.91,4.21,4.21,0,0,0,3.54.52c1.81-.67,2.38-.74,2.69-1.48,0,0,2.89.4,3.59-.41l1.68.16a5.35,5.35,0,0,0,3.92.55c2.18-.57,2.72-2.24,1.36-3.51l-1.35-1.28s.72-1.13,1.22-2.05S300.37,248.44,300.15,247.81Z" style="fill:#ffa8a7"></path><path d="M298.57,256.56c2.18-.57,2.72-2.24,1.36-3.51l-1.35-1.28a18.67,18.67,0,0,1-2.54,3.34,5.07,5.07,0,0,1-1.39.9A5.35,5.35,0,0,0,298.57,256.56Z" style="fill:#f28f8f"></path><path d="M273.71,239.08a11.41,11.41,0,0,0-2.34,2.42,20.84,20.84,0,0,0-1.33,3.09c-.12.27-.19.52-.34.81l-.44.74a9.4,9.4,0,0,0-.7,1.51,8.1,8.1,0,0,0-.39,3.33,6.84,6.84,0,0,1,.11-3.42A7.74,7.74,0,0,1,269,246l.42-.73c.11-.22.2-.52.31-.78a17.93,17.93,0,0,1,1.45-3.12A9,9,0,0,1,273.71,239.08Z" style="fill:#f28f8f"></path><path d="M294.76,241.39a3,3,0,0,0,.39,1.9c.32.6.6,1.21.89,1.82s.54,1.23.78,1.86c.12.32.23.63.33,1a2.38,2.38,0,0,1,.09,1.06,5.53,5.53,0,0,1-.8,1.91c-.34.58-.69,1.16-1.06,1.72a23.69,23.69,0,0,1-2.41,3.22c.8-1.07,1.46-2.24,2.16-3.38.33-.58.68-1.15,1-1.73a5.15,5.15,0,0,0,.72-1.79,3.79,3.79,0,0,0-.36-1.86c-.22-.63-.48-1.24-.72-1.86s-.51-1.25-.79-1.85a2.78,2.78,0,0,1-.29-1A5.65,5.65,0,0,1,294.76,241.39Z" style="fill:#f28f8f"></path><path d="M290.16,241.7a6.28,6.28,0,0,0,.67,1.81l.87,1.75a13.21,13.21,0,0,1,.74,1.83,3.69,3.69,0,0,1,.16,2c-.53,1.23-1,2.4-1.56,3.59s-1.08,2.37-1.66,3.54c.43-1.23.91-2.44,1.39-3.66l1.46-3.6a3.24,3.24,0,0,0-.13-1.81c-.18-.61-.43-1.21-.67-1.81A12.76,12.76,0,0,1,290.16,241.7Z" style="fill:#f28f8f"></path><path d="M282.79,242.19a16.18,16.18,0,0,0,1.09,1.84,11.78,11.78,0,0,0,1.29,1.67,3.38,3.38,0,0,1,1.25,1.8,8.43,8.43,0,0,1,.12,2.17c0,.71,0,1.42,0,2.15a3.6,3.6,0,0,1-.67,2.08,33.69,33.69,0,0,1-2.73,3.32c.85-1.15,1.71-2.29,2.48-3.48s.51-2.65.53-4.07a8,8,0,0,0-.09-2.09A3.3,3.3,0,0,0,285,245.9,13.47,13.47,0,0,1,282.79,242.19Z" style="fill:#f28f8f"></path><path d="M277.21,245.69a4.85,4.85,0,0,0,.93,2,4.57,4.57,0,0,0,1.64,1.43l.1.06v.12a6.13,6.13,0,0,0,.73,3.38l.05.08,0,.07c-.44,1-.88,2.06-1.37,3.08.32-1.08.69-2.14,1.06-3.2l0,.15a5.81,5.81,0,0,1-.82-3.59l.1.18a4.36,4.36,0,0,1-1.68-1.62A4.05,4.05,0,0,1,277.21,245.69Z" style="fill:#f28f8f"></path><path d="M277.91,247.58a38.3,38.3,0,0,0-4.65,2.19,6.32,6.32,0,0,0-2.53,3.86c-.24,1.57,1.52,2,2.53,1.8.61-.1,2.06-1.41,3.07-1.71a24.65,24.65,0,0,1,3.92-.38l.22-.55a5.94,5.94,0,0,1-.77-3.48A4.68,4.68,0,0,1,277.91,247.58Z" style="fill:#37474f"></path><path d="M232.52,157c-5,2.15-10.69,4.47-14.54,8.28-3.4,3.37-5.6,10.05-7.42,23.79-1.65,12.58-2.89,23.19-3.58,32.22s-.68,11.18,7.92,15.22c6.76,3.17,40.61,15.37,40.61,15.37-.82-6.8,3.05-16.13,10-18.39l-31.34-17.23,3.71-25.4S242,167.62,232.52,157Z" style="fill:#e0e0e0"></path></g><g id="freepik--head--inject-11"><polygon points="249.66 136.2 249 151.81 275.3 167.84 270.91 154.17 271.28 145.33 249.66 136.2" style="fill:#ffa8a7"></polygon><path d="M271.28,145.33l-4.15-1.75L253.37,143c2.72,3.66,10.34,8.29,17.61,9.35Z" style="fill:#f28f8f"></path><path d="M249.66,136.2a6.7,6.7,0,0,1-7.07-1.73c-3.37-3.5-4.51-7.88-1.63-10.73a6.37,6.37,0,0,1,10.11,2.14s3.45,5,4.66-6.27c.48-4.47,3.36-10.35,8.8-11.65,10.26-2.46,13.29,7.92,19.89-.82,2.13,2.37,5.16,4.61,4.55,21.76-.51,14.54-6.15,18.17-8.53,19.17s-6.82,2.42-14.71.39a35.7,35.7,0,0,1-14.07-6.74C249.58,140.07,249.66,136.2,249.66,136.2Z" style="fill:#ffa8a7"></path><path d="M264.46,123a2,2,0,0,0-1.07-1,6.28,6.28,0,0,0-.59-.27,2.9,2.9,0,0,0-.42-.12h-.09a.66.66,0,0,0-.14,0c-.13,0-.2.11-.29.19a.5.5,0,0,0,.06.72s.38.2.19.12l.19.1.15.06.22.08a3.71,3.71,0,0,1,.46.19h0l.21.11.19.09.16.1a1.75,1.75,0,0,1,.27.16.26.26,0,0,0,.39,0A.5.5,0,0,0,264.46,123Z" style="fill:#f28f8f"></path><path d="M263.53,124.26a1.41,1.41,0,0,0-.49-.16l-.24,0h-.16l-.22,0a5.06,5.06,0,0,0-1.07-.26c-.16,0-.24.23-.25.35a.56.56,0,0,0,.17.49,2,2,0,0,0,.65.35,3,3,0,0,0,.45.12,3.31,3.31,0,0,0,.55.08h.2l.2,0c.18-.05.25-.18.34-.33A.41.41,0,0,0,263.53,124.26Z" style="fill:#f28f8f"></path><path d="M288.22,121.8a.42.42,0,0,0-.59-.16,2.17,2.17,0,0,1-.36.12c-.23.08-.46.14-.7.2a.75.75,0,0,0-.13.06.26.26,0,0,0,0,.29c.2.31.56.29.89.27a1.93,1.93,0,0,0,.86-.18.32.32,0,0,0,.12-.26A.63.63,0,0,0,288.22,121.8Z" style="fill:#f28f8f"></path><path d="M288.35,124.19l-.06,0,0,0-.08-.06-.06,0h-.05l-.21,0h-.05l-.33,0a4.59,4.59,0,0,0-.91,0,.35.35,0,0,0-.27.5.57.57,0,0,0,.29.19,3.53,3.53,0,0,0,.63.13l.13,0c.23,0,.47.07.71.09s.46-.18.39-.41A.67.67,0,0,0,288.35,124.19Z" style="fill:#f28f8f"></path><path d="M269.82,136.4a.16.16,0,0,1,0,.06h0Z" style="fill:#f28f8f"></path><path d="M269.82,136.43l0,0,0,.05A.16.16,0,0,1,269.82,136.43Z" style="fill:#f28f8f"></path><path d="M267,124.27c-.09-.89.91.32,2.05.2s2-1.55,2.07-.66a1.91,1.91,0,0,1-1.9,1.84A1.85,1.85,0,0,1,267,124.27Z" style="fill:#263238"></path><path d="M280.58,123.63c.12-.89.83.52,2,.65s2.29-1.07,2.18-.18a2,2,0,0,1-2.29,1.38C281.31,125.35,280.47,124.52,280.58,123.63Z" style="fill:#263238"></path><path d="M281.57,117.13l4.18,1.67a2.16,2.16,0,0,1-2.85,1.31A2.37,2.37,0,0,1,281.57,117.13Z" style="fill:#455a64"></path><path d="M266.71,118.3l4.26-1.46a2.17,2.17,0,0,1-1.31,2.85A2.37,2.37,0,0,1,266.71,118.3Z" style="fill:#455a64"></path><polygon points="275.14 120.87 276.37 133.28 283.36 130.71 275.14 120.87" style="fill:#f28f8f"></polygon><path d="M273.53,117a2.32,2.32,0,0,0-.44-.76,2.5,2.5,0,0,0-1.74-.88c-.11,0-.15.14-.14.23a.38.38,0,0,0,.2.3,2.28,2.28,0,0,1,.3.21c.06,0,0,0,0,0a.6.6,0,0,0,.08.08l.11.11.06,0s0,.07,0,0l.09.12.09.12.05.06s0,0,0,0a.54.54,0,0,1,.07.13l0,.07s0,0,0,0,0,.09,0,.14a.29.29,0,0,1,0,.09v0a2.9,2.9,0,0,1,0,.51.6.6,0,0,0,.43.55.51.51,0,0,0,.63-.21,1,1,0,0,0,.15-.57A1.39,1.39,0,0,0,273.53,117Z" style="fill:#f28f8f"></path><path d="M280.43,115.57a1.36,1.36,0,0,0-.41.26,1.89,1.89,0,0,0-.32.37,3.44,3.44,0,0,0-.35.69,3,3,0,0,0-.16.78,1.83,1.83,0,0,0,.05.47,1.68,1.68,0,0,0,.06.24.69.69,0,0,0,.21.26,1,1,0,0,0,.29.31c.1,0,.14,0,.23-.06a1,1,0,0,0,.23-.42,1.48,1.48,0,0,0,0-.21c0-.11,0-.2.05-.3s0-.13,0-.2l0-.17v-.11a4.23,4.23,0,0,1,.21-.63c.05-.1.1-.19.14-.29a1.51,1.51,0,0,0,.21-.49C281,115.82,280.71,115.46,280.43,115.57Z" style="fill:#f28f8f"></path><path d="M275.48,137.64l-.1-.14a1.63,1.63,0,0,0-.17-.2,4.83,4.83,0,0,0-.38-.4,5.55,5.55,0,0,0-1-.76,6.3,6.3,0,0,0-1.68-.68,5.88,5.88,0,0,0,1.44-3.28c0-.11-.14-.38-.23-.18a9.6,9.6,0,0,1-3.31,4,8.49,8.49,0,0,1-2.38,1.06,7.63,7.63,0,0,1-1.24.27c-.44.06-.89.08-1.34.1a1.47,1.47,0,0,0-.72.14c-.13.08,0,.33.06.38a5.59,5.59,0,0,0,3.29,0,8.45,8.45,0,0,0,2.92-1.19c.23-.15.44-.31.65-.47a.86.86,0,0,0,.23.06,5.81,5.81,0,0,1,1.94.55,7.51,7.51,0,0,1,.82.47,6.39,6.39,0,0,1,.78.59,1.38,1.38,0,0,0,.44.32.11.11,0,0,0,.16-.11A1.21,1.21,0,0,0,275.48,137.64Z" style="fill:#b16668"></path></g></g></g></g><g id="freepik--speech-bubble--inject-11"><g id="freepik--speech-bubble--inject-11"><g id="freepik--speech-bubble--inject-11"><path d="M292.87,48.82a23.8,23.8,0,0,1-6.42,16.33l-2,1.88a23.86,23.86,0,0,1-33.72-33.56l1.88-2a23.86,23.86,0,0,1,40.23,17.33Z" style="fill:#fff"></path><path d="M268.93,23a25.91,25.91,0,0,0-4.2,51.46l2.93,7.5a1.51,1.51,0,0,0,2.81,0l2.89-7.51A25.91,25.91,0,0,0,268.93,23Zm23.94,25.85a23.8,23.8,0,0,1-6.42,16.33l-2,1.88a23.86,23.86,0,0,1-33.72-33.56l1.88-2a23.86,23.86,0,0,1,40.23,17.33Z" style="fill:#e0e0e0"></path><path d="M292.87,48.82a23.8,23.8,0,0,1-6.42,16.33l-2,1.88a23.86,23.86,0,0,1-33.72-33.56l1.88-2a23.86,23.86,0,0,1,40.23,17.33Z" style="fill:#fff;opacity:0.7000000000000001"></path></g><g id="freepik--Thoughts--inject-11"><path d="M264.27,64.2a11.85,11.85,0,0,1-11.67-9.9h0a11.84,11.84,0,1,1,11.67,9.9Zm0-23.05a10.48,10.48,0,0,0-1.84.16,11.23,11.23,0,0,0-9.22,12.89,11.21,11.21,0,1,0,11.06-13.05Z" style="fill:#455a64"></path><path d="M268.71,64.2a11.9,11.9,0,1,1,2-.16A11.75,11.75,0,0,1,268.71,64.2Zm0-23.16a11.88,11.88,0,0,0-1.87.15,11.26,11.26,0,1,0,13,9.27A11.29,11.29,0,0,0,268.73,41Z" style="fill:#455a64"></path><path d="M273.64,63.67a11.92,11.92,0,0,1-11.73-9.94h0a11.9,11.9,0,1,1,11.73,9.94Zm-11.1-10.05a11.27,11.27,0,1,0,1.95-8.39,11.26,11.26,0,0,0-1.95,8.39Z" style="fill:#455a64"></path><path d="M264.62,60.44a11.89,11.89,0,1,1,2-.16A12,12,0,0,1,264.62,60.44Zm0-23.16a10.59,10.59,0,0,0-1.85.16,11.27,11.27,0,0,0-9.26,13h0a11.26,11.26,0,0,0,22.22-3.69A11.29,11.29,0,0,0,264.64,37.28Z" style="fill:#455a64"></path><path d="M266.58,60.88a12,12,0,1,1,2-.17A12,12,0,0,1,266.58,60.88Zm0-23.16a11.79,11.79,0,0,0-1.87.15,11.27,11.27,0,0,0-9.26,13h0a11.3,11.3,0,0,0,13,9.27,11.26,11.26,0,0,0-1.83-22.37Z" style="fill:#455a64"></path><path d="M267.23,59.93a7.13,7.13,0,1,1,1.17-.1A6.6,6.6,0,0,1,267.23,59.93Zm-6.35-6a6.45,6.45,0,1,0,5.3-7.43,6.45,6.45,0,0,0-5.3,7.43Z" style="fill:#455a64"></path><path d="M270.42,55a7.11,7.11,0,0,1-7-5.93h0a7.09,7.09,0,1,1,8.15,5.83A7.68,7.68,0,0,1,270.42,55Zm-6.36-6a6.47,6.47,0,1,0,1.12-4.81A6.34,6.34,0,0,0,264.06,49Z" style="fill:#455a64"></path><path d="M268.93,56.17a7.06,7.06,0,1,1,1.17-.09A7.68,7.68,0,0,1,268.93,56.17Zm0-13.54a6.53,6.53,0,0,0-1.07.09,6.39,6.39,0,1,0,1.07-.09Z" style="fill:#455a64"></path><path d="M272.1,52.3a7.13,7.13,0,1,1,1.18-.1A7.83,7.83,0,0,1,272.1,52.3Zm0-13.54a6.39,6.39,0,0,0-1.06.08,6.47,6.47,0,0,0-5.31,7.43,6.45,6.45,0,0,0,12.73-2.12A6.45,6.45,0,0,0,272.12,38.76Z" style="fill:#455a64"></path><path d="M269.75,52.77a6.74,6.74,0,0,1-6.63-5.62h0a6.72,6.72,0,0,1,10.54-6.57,6.65,6.65,0,0,1,2.73,4.36,6.74,6.74,0,0,1-5.53,7.74A6.92,6.92,0,0,1,269.75,52.77Zm-6-5.73a6.09,6.09,0,0,0,12-2,6.09,6.09,0,0,0-7-5,6.09,6.09,0,0,0-5,7Z" style="fill:#455a64"></path><path d="M263.71,54a7,7,0,1,1,1.17-.09A7.68,7.68,0,0,1,263.71,54Zm0-13.54a6.45,6.45,0,1,0,6.36,5.4A6.41,6.41,0,0,0,263.72,40.44Z" style="fill:#455a64"></path><path d="M268.47,58.15a11.91,11.91,0,0,1-11.73-9.94h0a11.9,11.9,0,1,1,11.73,9.94Zm-11.11-10a11.26,11.26,0,1,0,9.26-13,11.29,11.29,0,0,0-9.26,13Z" style="fill:#455a64"></path><path d="M272.87,59.07a11.92,11.92,0,0,1-11.73-9.94h0a11.93,11.93,0,0,1,9.79-13.69,11.9,11.9,0,1,1,1.94,23.63Zm-11.1-10a11.25,11.25,0,1,0,9.26-13,11.27,11.27,0,0,0-9.26,13Z" style="fill:#455a64"></path></g></g></g></svg>