<svg width="179" height="149" viewBox="0 0 179 149" fill="none" xmlns="http://www.w3.org/2000/svg">
<rect width="178.573" height="149" rx="19" fill="#EBEBEB"/>
<path d="M53.3635 64.6964H47.5006L46.4206 67.6857H44.5692L49.4292 54.3207H51.4542L56.2949 67.6857H54.4435L53.3635 64.6964ZM52.862 63.2692L50.432 56.4807L48.002 63.2692H52.862ZM57.7573 62.3628C57.7573 61.2828 57.9759 60.3378 58.413 59.5278C58.8502 58.705 59.448 58.0685 60.2066 57.6185C60.978 57.1685 61.8394 56.9435 62.7909 56.9435C63.6137 56.9435 64.3787 57.1364 65.0859 57.5221C65.793 57.895 66.333 58.39 66.7059 59.0071V53.4142H68.4802V67.6857H66.7059V65.6992C66.3587 66.3292 65.8444 66.85 65.163 67.2614C64.4816 67.66 63.6844 67.8592 62.7716 67.8592C61.833 67.8592 60.978 67.6278 60.2066 67.165C59.448 66.7021 58.8502 66.0528 58.413 65.2171C57.9759 64.3814 57.7573 63.43 57.7573 62.3628ZM66.7059 62.3821C66.7059 61.585 66.5452 60.8907 66.2237 60.2992C65.9023 59.7078 65.4652 59.2578 64.9123 58.9492C64.3723 58.6278 63.7744 58.4671 63.1187 58.4671C62.463 58.4671 61.8652 58.6214 61.3252 58.93C60.7852 59.2385 60.3544 59.6885 60.033 60.28C59.7116 60.8714 59.5509 61.5657 59.5509 62.3628C59.5509 63.1728 59.7116 63.88 60.033 64.4842C60.3544 65.0757 60.7852 65.5321 61.3252 65.8535C61.8652 66.1621 62.463 66.3164 63.1187 66.3164C63.7744 66.3164 64.3723 66.1621 64.9123 65.8535C65.4652 65.5321 65.9023 65.0757 66.2237 64.4842C66.5452 63.88 66.7059 63.1792 66.7059 62.3821ZM72.3524 55.4007C72.0181 55.4007 71.7352 55.285 71.5038 55.0535C71.2724 54.8221 71.1567 54.5392 71.1567 54.205C71.1567 53.8707 71.2724 53.5878 71.5038 53.3564C71.7352 53.125 72.0181 53.0092 72.3524 53.0092C72.6738 53.0092 72.9438 53.125 73.1624 53.3564C73.3938 53.5878 73.5095 53.8707 73.5095 54.205C73.5095 54.5392 73.3938 54.8221 73.1624 55.0535C72.9438 55.285 72.6738 55.4007 72.3524 55.4007ZM73.2009 57.1171V67.6857H71.4459V57.1171H73.2009ZM75.5363 62.3821C75.5363 61.2892 75.7549 60.3378 76.192 59.5278C76.6292 58.705 77.2335 58.0685 78.0049 57.6185C78.7892 57.1685 79.6827 56.9435 80.6856 56.9435C81.9842 56.9435 83.0513 57.2585 83.887 57.8885C84.7356 58.5185 85.2949 59.3928 85.5649 60.5114H83.6749C83.4949 59.8685 83.1413 59.3607 82.6142 58.9878C82.0999 58.615 81.457 58.4285 80.6856 58.4285C79.6827 58.4285 78.8727 58.7757 78.2556 59.47C77.6385 60.1514 77.3299 61.1221 77.3299 62.3821C77.3299 63.655 77.6385 64.6385 78.2556 65.3328C78.8727 66.0271 79.6827 66.3742 80.6856 66.3742C81.457 66.3742 82.0999 66.1942 82.6142 65.8342C83.1285 65.4742 83.482 64.96 83.6749 64.2914H85.5649C85.282 65.3714 84.7163 66.2392 83.8677 66.895C83.0192 67.5378 81.9585 67.8592 80.6856 67.8592C79.6827 67.8592 78.7892 67.6342 78.0049 67.1842C77.2335 66.7342 76.6292 66.0978 76.192 65.275C75.7549 64.4521 75.5363 63.4878 75.5363 62.3821ZM88.813 55.4007C88.4787 55.4007 88.1959 55.285 87.9645 55.0535C87.733 54.8221 87.6173 54.5392 87.6173 54.205C87.6173 53.8707 87.733 53.5878 87.9645 53.3564C88.1959 53.125 88.4787 53.0092 88.813 53.0092C89.1345 53.0092 89.4045 53.125 89.623 53.3564C89.8545 53.5878 89.9702 53.8707 89.9702 54.205C89.9702 54.5392 89.8545 54.8221 89.623 55.0535C89.4045 55.285 89.1345 55.4007 88.813 55.4007ZM89.6616 57.1171V67.6857H87.9066V57.1171H89.6616ZM97.262 67.8592C96.272 67.8592 95.372 67.6342 94.562 67.1842C93.7648 66.7342 93.1348 66.0978 92.672 65.275C92.222 64.4392 91.997 63.475 91.997 62.3821C91.997 61.3021 92.2284 60.3507 92.6913 59.5278C93.167 58.6921 93.8098 58.0557 94.6198 57.6185C95.4298 57.1685 96.3363 56.9435 97.3391 56.9435C98.342 56.9435 99.2484 57.1685 100.058 57.6185C100.868 58.0557 101.505 58.6857 101.968 59.5085C102.443 60.3314 102.681 61.2892 102.681 62.3821C102.681 63.475 102.437 64.4392 101.948 65.275C101.473 66.0978 100.823 66.7342 100.001 67.1842C99.1777 67.6342 98.2648 67.8592 97.262 67.8592ZM97.262 66.3164C97.892 66.3164 98.4834 66.1685 99.0363 65.8728C99.5891 65.5771 100.033 65.1335 100.367 64.5421C100.714 63.9507 100.888 63.2307 100.888 62.3821C100.888 61.5335 100.721 60.8135 100.386 60.2221C100.052 59.6307 99.6148 59.1935 99.0748 58.9107C98.5348 58.615 97.9498 58.4671 97.3198 58.4671C96.677 58.4671 96.0855 58.615 95.5455 58.9107C95.0184 59.1935 94.5941 59.6307 94.2727 60.2221C93.9513 60.8135 93.7905 61.5335 93.7905 62.3821C93.7905 63.2435 93.9448 63.97 94.2534 64.5614C94.5748 65.1528 94.9991 65.5964 95.5263 65.8921C96.0534 66.175 96.632 66.3164 97.262 66.3164ZM110.138 56.9242C111.424 56.9242 112.465 57.3164 113.262 58.1007C114.059 58.8721 114.458 59.9907 114.458 61.4564V67.6857H112.722V61.7071C112.722 60.6528 112.459 59.8492 111.932 59.2964C111.404 58.7307 110.684 58.4478 109.772 58.4478C108.846 58.4478 108.107 58.7371 107.554 59.3157C107.014 59.8942 106.744 60.7364 106.744 61.8421V67.6857H104.989V57.1171H106.744V58.6214C107.091 58.0814 107.56 57.6635 108.152 57.3678C108.756 57.0721 109.418 56.9242 110.138 56.9242ZM116.669 62.3628C116.669 61.2828 116.888 60.3378 117.325 59.5278C117.762 58.705 118.36 58.0685 119.118 57.6185C119.89 57.1685 120.745 56.9435 121.683 56.9435C122.609 56.9435 123.413 57.1428 124.094 57.5414C124.776 57.94 125.283 58.4414 125.618 59.0457V57.1171H127.392V67.6857H125.618V65.7185C125.271 66.3357 124.75 66.85 124.056 67.2614C123.374 67.66 122.577 67.8592 121.664 67.8592C120.726 67.8592 119.877 67.6278 119.118 67.165C118.36 66.7021 117.762 66.0528 117.325 65.2171C116.888 64.3814 116.669 63.43 116.669 62.3628ZM125.618 62.3821C125.618 61.585 125.457 60.8907 125.136 60.2992C124.814 59.7078 124.377 59.2578 123.824 58.9492C123.284 58.6278 122.686 58.4671 122.031 58.4671C121.375 58.4671 120.777 58.6214 120.237 58.93C119.697 59.2385 119.266 59.6885 118.945 60.28C118.623 60.8714 118.463 61.5657 118.463 62.3628C118.463 63.1728 118.623 63.88 118.945 64.4842C119.266 65.0757 119.697 65.5321 120.237 65.8535C120.777 66.1621 121.375 66.3164 122.031 66.3164C122.686 66.3164 123.284 66.1621 123.824 65.8535C124.377 65.5321 124.814 65.0757 125.136 64.4842C125.457 63.88 125.618 63.1792 125.618 62.3821ZM132.113 58.8335C132.421 58.2292 132.858 57.76 133.424 57.4257C134.003 57.0914 134.703 56.9242 135.526 56.9242V58.7371H135.063C133.096 58.7371 132.113 59.8042 132.113 61.9385V67.6857H130.358V57.1171H132.113V58.8335ZM51.1362 84.4007C50.8019 84.4007 50.5191 84.285 50.2876 84.0535C50.0562 83.8221 49.9405 83.5392 49.9405 83.205C49.9405 82.8707 50.0562 82.5878 50.2876 82.3564C50.5191 82.125 50.8019 82.0092 51.1362 82.0092C51.4576 82.0092 51.7276 82.125 51.9462 82.3564C52.1776 82.5878 52.2933 82.8707 52.2933 83.205C52.2933 83.5392 52.1776 83.8221 51.9462 84.0535C51.7276 84.285 51.4576 84.4007 51.1362 84.4007ZM51.9848 86.1171V96.6857H50.2298V86.1171H51.9848ZM67.6851 85.9242C68.508 85.9242 69.2409 86.0978 69.8837 86.445C70.5266 86.7792 71.0344 87.2871 71.4073 87.9685C71.7801 88.65 71.9666 89.4792 71.9666 90.4564V96.6857H70.2309V90.7071C70.2309 89.6528 69.9673 88.8492 69.4401 88.2964C68.9259 87.7307 68.2251 87.4478 67.338 87.4478C66.4251 87.4478 65.6987 87.7435 65.1587 88.335C64.6187 88.9135 64.3487 89.7557 64.3487 90.8614V96.6857H62.613V90.7071C62.613 89.6528 62.3494 88.8492 61.8223 88.2964C61.308 87.7307 60.6073 87.4478 59.7201 87.4478C58.8073 87.4478 58.0809 87.7435 57.5409 88.335C57.0009 88.9135 56.7309 89.7557 56.7309 90.8614V96.6857H54.9759V86.1171H56.7309V87.6407C57.078 87.0878 57.5409 86.6635 58.1194 86.3678C58.7109 86.0721 59.3601 85.9242 60.0673 85.9242C60.9544 85.9242 61.7387 86.1235 62.4201 86.5221C63.1016 86.9207 63.6094 87.5057 63.9437 88.2771C64.2394 87.5314 64.728 86.9528 65.4094 86.5414C66.0909 86.13 66.8494 85.9242 67.6851 85.9242ZM74.1897 91.3628C74.1897 90.2828 74.4083 89.3378 74.8454 88.5278C75.2826 87.705 75.8804 87.0685 76.639 86.6185C77.4104 86.1685 78.2654 85.9435 79.204 85.9435C80.1297 85.9435 80.9333 86.1428 81.6147 86.5414C82.2961 86.94 82.804 87.4414 83.1383 88.0457V86.1171H84.9126V96.6857H83.1383V94.7185C82.7911 95.3357 82.2704 95.85 81.5761 96.2614C80.8947 96.66 80.0976 96.8592 79.1847 96.8592C78.2461 96.8592 77.3976 96.6278 76.639 96.165C75.8804 95.7021 75.2826 95.0528 74.8454 94.2171C74.4083 93.3814 74.1897 92.43 74.1897 91.3628ZM83.1383 91.3821C83.1383 90.585 82.9776 89.8907 82.6561 89.2992C82.3347 88.7078 81.8976 88.2578 81.3447 87.9492C80.8047 87.6278 80.2068 87.4671 79.5511 87.4671C78.8954 87.4671 78.2976 87.6214 77.7576 87.93C77.2176 88.2385 76.7868 88.6885 76.4654 89.28C76.144 89.8714 75.9833 90.5657 75.9833 91.3628C75.9833 92.1728 76.144 92.88 76.4654 93.4842C76.7868 94.0757 77.2176 94.5321 77.7576 94.8535C78.2976 95.1621 78.8954 95.3164 79.5511 95.3164C80.2068 95.3164 80.8047 95.1621 81.3447 94.8535C81.8976 94.5321 82.3347 94.0757 82.6561 93.4842C82.9776 92.88 83.1383 92.1792 83.1383 91.3821ZM92.2369 85.9435C93.1498 85.9435 93.9469 86.1428 94.6283 86.5414C95.3226 86.94 95.8369 87.4414 96.1712 88.0457V86.1171H97.9455V96.9171C97.9455 97.8814 97.7398 98.7364 97.3283 99.4821C96.9169 100.241 96.3255 100.832 95.5541 101.256C94.7955 101.681 93.9083 101.893 92.8926 101.893C91.5041 101.893 90.3469 101.565 89.4212 100.909C88.4955 100.254 87.9491 99.36 87.7819 98.2285H89.5176C89.7105 98.8714 90.1091 99.3857 90.7133 99.7714C91.3176 100.17 92.0441 100.369 92.8926 100.369C93.8569 100.369 94.6412 100.067 95.2455 99.4628C95.8626 98.8585 96.1712 98.01 96.1712 96.9171V94.6992C95.8241 95.3164 95.3098 95.8307 94.6283 96.2421C93.9469 96.6535 93.1498 96.8592 92.2369 96.8592C91.2983 96.8592 90.4433 96.6278 89.6719 96.165C88.9133 95.7021 88.3155 95.0528 87.8783 94.2171C87.4412 93.3814 87.2226 92.43 87.2226 91.3628C87.2226 90.2828 87.4412 89.3378 87.8783 88.5278C88.3155 87.705 88.9133 87.0685 89.6719 86.6185C90.4433 86.1685 91.2983 85.9435 92.2369 85.9435ZM96.1712 91.3821C96.1712 90.585 96.0105 89.8907 95.6891 89.2992C95.3676 88.7078 94.9305 88.2578 94.3776 87.9492C93.8376 87.6278 93.2398 87.4671 92.5841 87.4671C91.9283 87.4671 91.3305 87.6214 90.7905 87.93C90.2505 88.2385 89.8198 88.6885 89.4983 89.28C89.1769 89.8714 89.0162 90.5657 89.0162 91.3628C89.0162 92.1728 89.1769 92.88 89.4983 93.4842C89.8198 94.0757 90.2505 94.5321 90.7905 94.8535C91.3305 95.1621 91.9283 95.3164 92.5841 95.3164C93.2398 95.3164 93.8376 95.1621 94.3776 94.8535C94.9305 94.5321 95.3676 94.0757 95.6891 93.4842C96.0105 92.88 96.1712 92.1792 96.1712 91.3821ZM110.554 90.9964C110.554 91.3307 110.535 91.6842 110.496 92.0571H102.049C102.113 93.0985 102.467 93.915 103.11 94.5064C103.766 95.085 104.556 95.3742 105.482 95.3742C106.241 95.3742 106.871 95.2007 107.372 94.8535C107.886 94.4935 108.246 94.0178 108.452 93.4264H110.342C110.059 94.4421 109.493 95.2714 108.645 95.9142C107.796 96.5442 106.742 96.8592 105.482 96.8592C104.479 96.8592 103.579 96.6342 102.782 96.1842C101.998 95.7342 101.381 95.0978 100.931 94.275C100.481 93.4392 100.256 92.475 100.256 91.3821C100.256 90.2892 100.474 89.3314 100.911 88.5085C101.348 87.6857 101.959 87.0557 102.743 86.6185C103.541 86.1685 104.453 85.9435 105.482 85.9435C106.485 85.9435 107.372 86.1621 108.143 86.5992C108.915 87.0364 109.506 87.6407 109.918 88.4121C110.342 89.1707 110.554 90.0321 110.554 90.9964ZM108.741 90.63C108.741 89.9614 108.593 89.3892 108.298 88.9135C108.002 88.425 107.597 88.0585 107.083 87.8142C106.581 87.5571 106.022 87.4285 105.405 87.4285C104.518 87.4285 103.759 87.7114 103.129 88.2771C102.512 88.8428 102.158 89.6271 102.068 90.63H108.741ZM125.58 85.9242C126.403 85.9242 127.136 86.0978 127.779 86.445C128.421 86.7792 128.929 87.2871 129.302 87.9685C129.675 88.65 129.861 89.4792 129.861 90.4564V96.6857H128.126V90.7071C128.126 89.6528 127.862 88.8492 127.335 88.2964C126.821 87.7307 126.12 87.4478 125.233 87.4478C124.32 87.4478 123.594 87.7435 123.054 88.335C122.514 88.9135 122.244 89.7557 122.244 90.8614V96.6857H120.508V90.7071C120.508 89.6528 120.244 88.8492 119.717 88.2964C119.203 87.7307 118.502 87.4478 117.615 87.4478C116.702 87.4478 115.976 87.7435 115.436 88.335C114.896 88.9135 114.626 89.7557 114.626 90.8614V96.6857H112.871V86.1171H114.626V87.6407C114.973 87.0878 115.436 86.6635 116.014 86.3678C116.606 86.0721 117.255 85.9242 117.962 85.9242C118.849 85.9242 119.634 86.1235 120.315 86.5221C120.996 86.9207 121.504 87.5057 121.839 88.2771C122.134 87.5314 122.623 86.9528 123.304 86.5414C123.986 86.13 124.744 85.9242 125.58 85.9242Z" fill="#9A9A9A"/>
</svg>
