<svg width="28" height="33" viewBox="0 0 28 33" fill="none" xmlns="http://www.w3.org/2000/svg">
<path d="M12.5612 32.3342C1.96656 18.7579 0 17.3645 0 12.375C0 5.54045 6.26799 0 14 0C21.732 0 28 5.54045 28 12.375C28 17.3645 26.0334 18.7579 15.4388 32.3342C14.7435 33.222 13.2564 33.2219 12.5612 32.3342ZM14 17.5312C17.2217 17.5312 19.8333 15.2227 19.8333 12.375C19.8333 9.52727 17.2217 7.21875 14 7.21875C10.7783 7.21875 8.16667 9.52727 8.16667 12.375C8.16667 15.2227 10.7783 17.5312 14 17.5312Z" fill="#0077B7"/>
</svg>
