<svg width="40" height="35" viewBox="0 0 40 35" fill="none" xmlns="http://www.w3.org/2000/svg">
<path d="M39.6743 12.9621L38.1028 11.4496C37.6687 11.0318 36.9653 11.0318 36.5312 11.4496L35.7458 12.2055L33.7388 10.2739C34.1298 8.84968 33.7639 7.27303 32.6034 6.15621L29.461 3.13191C25.1221 -1.04397 18.0867 -1.04397 13.7471 3.13191L20.0325 6.15621V7.40937C20.0325 8.54357 20.5006 9.63165 21.3346 10.4337L24.7471 13.718C25.9076 14.8348 27.5458 15.187 29.0256 14.8107L31.0326 16.7423L30.2472 17.4982C29.8131 17.9159 29.8131 18.5929 30.2472 19.0107L31.8187 20.5231C32.2527 20.9409 32.9562 20.9409 33.3902 20.5231L39.6757 14.4739C40.1083 14.0568 40.1083 13.3798 39.6743 12.9621ZM19.7631 11.9462C19.5061 11.6989 19.2881 11.4255 19.079 11.1475L1.36367 27.0657C-0.412038 28.6617 -0.459955 31.3558 1.25742 33.0093C2.97479 34.6628 5.7748 34.6167 7.43315 32.9071L23.97 15.8594C23.695 15.6649 23.4214 15.467 23.1756 15.2305L19.7631 11.9462Z" fill="#0077B7"/>
</svg>
